<?xml version="1.0" encoding="UTF-8" standalone="no"?>
<svg
   version="1.1"
   width="749.25067"
   height="245.66679"
   id="svg16"
   viewBox="0 0 749.25067 245.66679"
   sodipodi:docname="d166d9128ee65f5c94ef711180a14357.cdr"
   xmlns:inkscape="http://www.inkscape.org/namespaces/inkscape"
   xmlns:sodipodi="http://sodipodi.sourceforge.net/DTD/sodipodi-0.dtd"
   xmlns="http://www.w3.org/2000/svg"
   xmlns:svg="http://www.w3.org/2000/svg">
  <defs
     id="defs20" />
  <sodipodi:namedview
     id="namedview18"
     pagecolor="#ffffff"
     bordercolor="#666666"
     borderopacity="1.0"
     inkscape:pageshadow="2"
     inkscape:pageopacity="0.0"
     inkscape:pagecheckerboard="0" />
  <g
     id="Layer1000"
     transform="translate(-46.3195,-174.8044)" />
  <g
     id="Layer1001"
     transform="translate(-46.3195,-174.8044)">
    <path
       d="m 230.5239,261.5618 h -87.429 v 25.9433 h 62.0045 c -3.0631,36.3795 -33.3298,51.8938 -61.8999,51.8938 -36.5525,0 -68.4479,-28.7592 -68.4479,-69.0692 0,-39.2675 30.4047,-69.5092 68.5284,-69.5092 29.4129,0 46.7444,18.7503 46.7444,18.7503 l 18.165,-18.8107 c 0,0 -23.3152,-25.9557 -65.8377,-25.9557 -54.1426,0 -96.0322,45.7007 -96.0322,95.0632 0,48.3696 39.4044,95.5375 97.4146,95.5375 51.0231,0 88.3726,-34.9529 88.3726,-86.6367 0,-10.9043 -1.5831,-17.2066 -1.5831,-17.2066 z"
       style="fill:#4885ed;fill-rule:evenodd"
       id="path3" />
    <path
       d="m 302.1437,242.7758 c -35.8738,0 -61.5829,28.046 -61.5829,60.7561 0,33.1937 24.9364,61.7612 62.0045,61.7612 33.5568,0 61.048,-25.6481 61.048,-61.048 0,-40.5732 -31.9787,-61.4696 -61.4696,-61.4696 z m 0.3566,24.0624 c 17.642,0 34.3588,14.2626 34.3588,37.245 0,22.4949 -16.6465,37.1639 -34.4398,37.1639 -19.5514,0 -34.975,-15.6586 -34.975,-37.3422 0,-21.2187 15.2322,-37.0667 35.056,-37.0667 z"
       style="fill:#db3236;fill-rule:evenodd"
       id="path5" />
    <path
       d="m 436.0836,242.7758 c -35.8739,0 -61.583,28.046 -61.583,60.7561 0,33.1937 24.9364,61.7612 62.0045,61.7612 33.5568,0 61.0481,-25.6481 61.0481,-61.048 0,-40.5732 -31.9788,-61.4696 -61.4696,-61.4696 z m 0.3566,24.0624 c 17.642,0 34.3587,14.2626 34.3587,37.245 0,22.4949 -16.6464,37.1639 -34.4398,37.1639 -19.5514,0 -34.975,-15.6586 -34.975,-37.3422 0,-21.2187 15.2323,-37.0667 35.0561,-37.0667 z"
       style="fill:#f4c20d;fill-rule:evenodd"
       id="path7" />
    <path
       d="m 567.4467,242.8404 c -32.9283,0 -58.8104,28.84 -58.8104,61.2102 0,36.8725 30.0068,61.3236 58.2429,61.3236 17.4592,0 26.7429,-6.9304 33.5965,-14.885 v 12.0798 c 0,21.1352 -12.833,33.7913 -32.2021,33.7913 -18.7118,0 -28.0976,-13.9136 -31.3591,-21.8086 l -23.5437,9.8421 c 8.3523,17.6599 25.1654,36.0774 55.0973,36.0774 32.7387,0 57.6915,-20.6215 57.6915,-63.8694 V 246.5209 h -25.6839 v 10.3774 c -7.8916,-8.5091 -18.6908,-14.0579 -33.029,-14.0579 z m 2.3837,24.014 c 16.1442,0 32.7212,13.7846 32.7212,37.326 0,23.9279 -16.5416,37.1152 -33.0778,37.1152 -17.5547,0 -33.8885,-14.254 -33.8885,-36.8881 0,-23.5188 16.9642,-37.5531 34.2451,-37.5531 z"
       style="fill:#4885ed;fill-rule:evenodd"
       id="path9" />
    <path
       d="m 740.3593,242.6947 c -31.0607,0 -57.1402,24.7124 -57.1402,61.1776 0,38.5849 29.0695,61.4696 60.1236,61.4696 25.9186,0 41.8261,-14.1795 51.3193,-26.8838 l -21.1762,-14.0904 c -5.495,8.528 -14.6818,16.8633 -30.0132,16.8633 -17.2216,0 -25.1399,-9.4301 -30.0456,-18.5658 l 82.1432,-34.083 -4.2644,-9.9881 C 783.3671,259.0333 764.8549,242.695 740.3596,242.695 Z m 1.0701,23.5596 c 11.1923,0 19.2472,5.9508 22.668,13.0853 l -54.854,22.9275 c -2.365,-17.7506 14.4513,-36.0125 32.186,-36.0125 z"
       style="fill:#db3236;fill-rule:evenodd"
       id="path11" />
    <path
       d="m 644.0607,361.7031 h 26.981 V 181.1373 h -26.981 z"
       style="fill:#3cba54;fill-rule:evenodd"
       id="path13" />
  </g>
</svg>
