<?xml version="1.0" encoding="UTF-8" standalone="no"?>
<svg
   version="1.1"
   width="483.28632"
   height="655.72955"
   id="svg40"
   viewBox="0 0 483.28631 655.72955"
   sodipodi:docname="7dd34cd25e4f69b3bfcc7d244ad3073a.cdr"
   xmlns:inkscape="http://www.inkscape.org/namespaces/inkscape"
   xmlns:sodipodi="http://sodipodi.sourceforge.net/DTD/sodipodi-0.dtd"
   xmlns="http://www.w3.org/2000/svg"
   xmlns:svg="http://www.w3.org/2000/svg">
  <defs
     id="defs44" />
  <sodipodi:namedview
     id="namedview42"
     pagecolor="#ffffff"
     bordercolor="#666666"
     borderopacity="1.0"
     inkscape:pageshadow="2"
     inkscape:pageopacity="0.0"
     inkscape:pagecheckerboard="0" />
  <path
     d="m 483.11474,191.14541 v 21.073 231.3057 21.073 l 0.0119,0.2728 c 2.8102,117.5817 -109.3694,190.6959 -240.89,190.7516 -119.583,0.0501 -239.3755994,-64.3131 -242.1031994,-190.8685 v -25.4903 -222.7829 -25.4903 C -1.8679594,83.094015 114.51514,-1.0952855 242.23664,0.12101453 368.19584,1.3207145 482.06984,77.755515 483.12664,190.87261 Z"
     style="fill:#ffec00;fill-rule:evenodd;stroke:#1b1918;stroke-width:0.216;stroke-linecap:butt;stroke-linejoin:miter;stroke-dasharray:none"
     id="path2" />
  <path
     d="m 430.10254,215.44501 v 17.3279 190.1967 17.3279 l 0.009,0.2243 c 2.1933,96.6844 -85.3598,156.8043 -188.008,156.8501 -93.3313,0.0412 -186.826099,-52.883 -188.954899,-156.9463 v -20.96 -183.1887 -20.96 c -1.5621,-88.7197 89.271699,-157.946495 188.954899,-156.946295 98.3077,0.9864 187.1832,63.836795 188.008,156.850195 z"
     style="fill:#ffffff;fill-rule:evenodd;stroke:#1b1918;stroke-width:0.216;stroke-linecap:butt;stroke-linejoin:miter;stroke-dasharray:none"
     id="path4" />
  <path
     d="m 418.56874,221.62461 v 16.3754 179.7425 16.3754 l 0.009,0.212 c 2.0591,91.3701 -80.136,148.1856 -176.5024,148.2288 -87.6197,0.039 -175.392899,-49.9763 -177.391499,-148.3196 v -19.808 -173.1197 -19.8079 c -1.4664,-83.8433 83.808599,-149.264895 177.391499,-148.319695 92.2915,0.9322 175.7281,60.327995 176.5024,148.228795 z"
     style="fill:#009ee0;fill-rule:evenodd;stroke:#1b1918;stroke-width:0.216;stroke-linecap:butt;stroke-linejoin:miter;stroke-dasharray:none"
     id="path6" />
  <path
     d="m 408.14254,227.39921 v 15.4854 169.9733 15.4854 l 0.008,0.2004 c 1.9378,86.4041 -75.4139,140.1315 -166.1019,140.1724 -82.4566,0.0368 -165.057699,-47.26 -166.938399,-140.2583 v -18.7314 -163.7103 -18.7314 c -1.3801,-79.2862 78.870099,-141.152095 166.938399,-140.258295 86.8532,0.8815 165.3732,57.049095 166.1019,140.172395 z"
     style="fill:#ffffff;fill-rule:evenodd;stroke:#1b1918;stroke-width:0.216;stroke-linecap:butt;stroke-linejoin:miter;stroke-dasharray:none"
     id="path8" />
  <path
     d="m 369.63064,310.70941 c 13.7594,-14.7915 21.5625,-37.3819 21.5625,-58.744 0,-35.8981 -30.269,-65.0126 -67.594,-65.0126 -4.2593,0 -8.43,0.3883 -12.4719,1.1123 -4.405,-33.3928 -33.6081,-59.2063 -68.9723,-59.2063 -35.4739,0 -64.7531,25.9697 -69.0208,59.5102 -4.5337,-0.9223 -9.2321,-1.4162 -14.0528,-1.4162 -37.3229,0 -67.591899,29.1145 -67.591899,65.0126 0,20.4038 9.221499,41.6688 23.673199,56.2197 26.0245,-19.8381 72.5667,-33.0657 125.6541,-33.0657 55.3079,0 103.5133,14.3589 128.8139,35.59 z"
     style="fill:#e30016;fill-rule:evenodd;stroke:#1b1918;stroke-width:0.216;stroke-linecap:butt;stroke-linejoin:miter;stroke-dasharray:none"
     id="path10" />
  <path
     d="m 312.42314,389.78131 h -80.239 v -63.9848 h 18.9285 l 0.1034,55.2762 h 11.5728 l -0.3462,-55.2741 17.451,0.002 0.004,55.272 h 10.4963 l -0.306,-55.2762 h 22.335 z"
     style="fill:#009ee0;fill-rule:evenodd;stroke:#1b1918;stroke-width:0.216;stroke-linecap:butt;stroke-linejoin:miter;stroke-dasharray:none"
     id="path12" />
  <path
     d="m 228.00504,389.78131 h -23.5782 l -4.0715,-13.331 h -17.776 l -4.4451,13.331 h -11.3574 l 21.1087,-63.9848 h 20.121 z"
     style="fill:#009ee0;fill-rule:evenodd;stroke:#1b1918;stroke-width:0.216;stroke-linecap:butt;stroke-linejoin:miter;stroke-dasharray:none"
     id="path14" />
  <path
     d="m 197.63684,367.74171 -5.9247,-19.9943 -6.2961,19.9943 z"
     style="fill:#ffffff;fill-rule:evenodd;stroke:#1b1918;stroke-width:0.216;stroke-linecap:butt;stroke-linejoin:miter;stroke-dasharray:none"
     id="path16" />
  <path
     d="m 162.56374,389.76351 v -63.9471 h -20.6682 v 26.3351 h -16.812 v -26.3351 h -20.6683 v 63.9471 h 20.6683 v -31.8814 h 16.812 v 31.8814 z"
     style="fill:#009ee0;fill-rule:evenodd;stroke:#1b1918;stroke-width:0.216;stroke-linecap:butt;stroke-linejoin:miter;stroke-dasharray:none"
     id="path18" />
  <path
     d="m 379.14874,484.23951 h -26.2582 l -4.5369,-16.3532 h -19.7995 l -4.949,16.3532 h -12.6476 l 23.5088,-78.4953 h 22.4101 z"
     style="fill:#009ee0;fill-rule:evenodd;stroke:#000000;stroke-width:0.216;stroke-linecap:butt;stroke-linejoin:miter;stroke-dasharray:none"
     id="path20" />
  <path
     d="m 345.32864,457.20271 -6.5998,-24.5298 -7.0109,24.5298 z"
     style="fill:#ffffff;fill-rule:evenodd;stroke:#000000;stroke-width:0.216;stroke-linecap:butt;stroke-linejoin:miter;stroke-dasharray:none"
     id="path22" />
  <path
     d="m 308.51554,460.66901 c 0,15.7725 -9.9917,23.6581 -29.973,23.6581 h -34.6455 v -78.4953 h 58.2931 v 10.6836 h -32.3082 v 20.278 h 5.6356 c 21.9979,0 32.998,7.959 32.998,23.8756 z"
     style="fill:#009ee0;fill-rule:evenodd;stroke:#000000;stroke-width:0.216;stroke-linecap:butt;stroke-linejoin:miter;stroke-dasharray:none"
     id="path24" />
  <path
     d="m 282.94164,461.10561 c 0,-9.5943 -3.3445,-14.3908 -10.0347,-14.3908 h -3.025 v 27.6909 h 3.025 c 6.6902,0 10.0347,-4.4334 10.0347,-13.3001 z"
     style="fill:#ffffff;fill-rule:evenodd;stroke:#000000;stroke-width:0.216;stroke-linecap:butt;stroke-linejoin:miter;stroke-dasharray:none"
     id="path26" />
  <path
     d="m 234.10474,484.11851 v -78.3537 h -32.5837 c -8.4324,0 -15.0543,1.9632 -19.8656,5.8882 -4.8135,3.9251 -7.218,9.36 -7.218,16.3047 0,4.3784 1.2827,8.1897 3.8481,11.4354 2.7517,3.473 6.5998,5.8508 11.5489,7.1333 l -18.5597,37.5921 h 24.0597 l 13.0619,-34.8747 h 3.7115 v 34.8747 z"
     style="fill:#009ee0;fill-rule:evenodd;stroke:#000000;stroke-width:0.216;stroke-linecap:butt;stroke-linejoin:miter;stroke-dasharray:none"
     id="path28" />
  <path
     d="m 212.10784,443.02951 h -4.4002 c -8.4325,0 -12.6476,-4.7965 -12.6476,-14.3908 0,-9.5943 4.2151,-14.3908 12.6476,-14.3908 h 4.4002 z"
     style="fill:#ffffff;fill-rule:evenodd;stroke:#000000;stroke-width:0.216;stroke-linecap:butt;stroke-linejoin:miter;stroke-dasharray:none"
     id="path30" />
  <path
     d="m 169.46524,429.40101 c 0,15.99 -10.999,23.9851 -32.9969,23.9851 h -5.6367 v 30.8534 h -25.9838 v -78.4953 h 34.6454 c 19.9813,0 29.972,7.8856 29.972,23.6568 z"
     style="fill:#009ee0;fill-rule:evenodd;stroke:#000000;stroke-width:0.216;stroke-linecap:butt;stroke-linejoin:miter;stroke-dasharray:none"
     id="path32" />
  <path
     d="m 143.89244,428.96571 c 0,-8.7946 -3.3457,-13.192 -10.0358,-13.192 h -3.025 v 27.5829 h 3.025 c 6.6901,0 10.0358,-4.7966 10.0358,-14.3909 z"
     style="fill:#ffffff;fill-rule:evenodd;stroke:#000000;stroke-width:0.216;stroke-linecap:butt;stroke-linejoin:miter;stroke-dasharray:none"
     id="path34" />
  <path
     d="m 379.20504,389.78131 h -23.5782 l -4.0715,-13.331 h -17.776 l -4.4451,13.331 h -11.3574 l 21.1087,-63.9848 h 20.121 z"
     style="fill:#009ee0;fill-rule:evenodd;stroke:#1b1918;stroke-width:0.216;stroke-linecap:butt;stroke-linejoin:miter;stroke-dasharray:none"
     id="path36" />
  <path
     d="m 348.83684,367.74171 -5.9247,-19.9943 -6.2961,19.9943 z"
     style="fill:#ffffff;fill-rule:evenodd;stroke:#1b1918;stroke-width:0.216;stroke-linecap:butt;stroke-linejoin:miter;stroke-dasharray:none"
     id="path38" />
</svg>
