<?xml version="1.0" encoding="UTF-8" standalone="no"?>
<svg
   version="1.1"
   width="656.88538"
   height="351.74835"
   id="svg6"
   viewBox="0 0 656.88538 351.74835"
   sodipodi:docname="8a83fa9422deebda2b14d4ca5b332c28.cdr"
   xmlns:inkscape="http://www.inkscape.org/namespaces/inkscape"
   xmlns:sodipodi="http://sodipodi.sourceforge.net/DTD/sodipodi-0.dtd"
   xmlns="http://www.w3.org/2000/svg"
   xmlns:svg="http://www.w3.org/2000/svg">
  <defs
     id="defs10" />
  <sodipodi:namedview
     id="namedview8"
     pagecolor="#ffffff"
     bordercolor="#666666"
     borderopacity="1.0"
     inkscape:pageshadow="2"
     inkscape:pageopacity="0.0"
     inkscape:pagecheckerboard="0" />
  <path
     d="M 16.690085,0 H 640.44028 c 3.24,2.1101 6.56,4.1902 9.2101,7.0401 4.28,4.5601 6.7498,10.7201 7.0299,16.9501 0.3101,19.9998 -0.01,40.0099 0.0201,60.0199 -0.0901,23.6702 0.32,47.34 -0.07,71.0102 -0.29,7.3199 0.5099,14.6398 0.11,21.96 -0.5001,15.6699 0.3699,31.3398 -0.0102,47.0097 0.2202,28.6702 -0.0698,57.3404 -0.11,86 0.2401,6.5603 0.6001,13.18 -0.4,19.7 -1.4998,9.0499 -8.0898,16.9602 -16.63,20.2402 -5.9998,2.4999 -12.6198,1.6597 -18.94,1.7598 -198,-0.01 -396,-0.01 -593.989995,0 -14.22,0.4101 -27.15000001,-12.4297 -26.60970001,-26.7001 -0.0102,-96.9999 0.0096,-194.0097 -0.0102,-291.0198 0.0697,-6.7399 -0.72,-13.93 2.41990001,-20.1699 C 5.250385,7.59 10.650385,2.9401 16.690085,0 Z m 5.37,9.5301 c -6.9897,2.12 -11.9597,9.1899 -11.6501,16.49 0,99.3101 0,198.6301 0,297.9499 -0.2597,6.5301 3.6,12.9302 9.5301,15.6903 4.2403,2.1297 9.1199,1.5199 13.7001,1.6001 198.679995,-0.0405 397.360095,-0.0204 596.049995,-0.0102 8.6902,0.2299 16.5402,-7.5699 16.5002,-16.2399 0.01,-99.6602 -0.0201,-199.33 0.01,-298.9902 0.4498,-7.7199 -5.27,-15.1101 -12.76,-16.7998 -4.2301,-0.8102 -8.5501,-0.3901 -12.8202,-0.4703 -197.6599,0.0201 -395.32,0.0201 -592.969895,0 -1.8901,0.0502 -3.7902,0.1902 -5.5902,0.7801 z M 332.17028,46.69 c 4.2001,-1.3598 9.22,-0.7699 12.6,2.2201 4.65,4.28 4.9201,12.31 0.7801,17.03 -4.8302,5.3399 -14.61,4.97 -18.7701,-1.0001 -4.32,-5.97 -1.98,-15.98 5.39,-18.25 z m 1.88,2.7301 c -6.9699,3.16 -6.2,16.0001 1.7801,17.24 6.01,0.6301 9.2398,-6.5599 7.6099,-11.5999 -0.6899,-4.18 -5.29,-7.49 -9.39,-5.6401 z m -38.17,-1.88 c 1.7499,-0.1499 3.5099,-0.2999 5.2699,-0.46 -0.2199,3.2799 -0.0499,6.5701 0.1001,9.8501 3.56,-0.2801 7.1501,-0.22 10.6999,-0.6401 1.0701,-3.0299 0.0601,-6.5801 -0.5,-9.72 1.7501,-0.0499 3.5002,-0.1001 5.2501,-0.1499 -0.2299,7.59 0.24,15.2299 1.2401,22.75 -1.7402,0.0898 -3.4702,0.18 -5.2101,0.29 0.3399,-3.42 0.19,-6.8602 -0.11,-10.27 -3.74,0.2098 -7.4701,0.4198 -11.1999,0.6398 0.18,3.4002 0.3798,6.8103 0.9799,10.1801 -1.7799,0.0901 -3.56,0.1899 -5.33,0.29 0.65,-3.7299 0.1599,-7.5099 -0.0201,-11.2601 -0.22,-3.85 -0.1298,-7.7598 -1.1699,-11.4999 z m 65.96,1.6402 c 4.24,-2.6402 9.5099,-1.8803 13.86,0.0598 -0.4499,1.3201 -0.9,2.6299 -1.34,3.95 -2.1801,-1.6299 -4.6899,-3.3899 -7.5699,-2.5801 -7.2201,2.06 -8.03,14.2101 -0.93,16.9801 3.34,1.4199 6.77,-0.3101 9.1899,-2.6101 0.33,1.33 0.6599,2.66 1.0001,3.99 -5.1401,3.0901 -12.5,2.96 -16.7202,-1.6299 -4.8699,-5.1199 -3.7298,-14.6401 2.5101,-18.1598 z m -89.2199,2.7297 c 3.78,-3.4098 9.3299,-3.6499 13.9799,-2.1399 -0.3101,1.3201 -0.62,2.63 -0.9301,3.9501 -2.3598,-1.2401 -5.14,-2.8502 -7.77,-1.3102 -6.8499,3.2001 -5.5698,15.1101 1.76,16.9101 3.5601,0.97 6.6402,-1.51 8.7602,-4.0799 0.4898,1.2498 0.9799,2.4999 1.48,3.7401 -4.2701,3.8097 -10.9301,4.8897 -15.8502,1.6999 C 267.72038,66.81 266.98028,56.7 272.62038,51.91 Z m 118.5599,-1.2299 c 5.7699,-1.55 13.06,1.22 14.97,7.23 1.41,4.57 0.22,10.0301 -3.35,13.32 -5.2999,4.7801 -14.82,3.21 -18.3801,-2.9698 -3.71,-6.2303 -0.5,-15.7403 6.7601,-17.5802 z m 1.9601,2.9599 c -4.0402,1.5701 -5.9502,6.3102 -5.6701,10.3901 0.14,4.0201 4.0901,7.6799 8.1499,6.8 5.3002,-1.29 7.6201,-7.91 6.0602,-12.74 -0.9502,-3.5201 -5.1302,-5.6999 -8.54,-4.4501 z m 24.31,0.2401 c 1.72,0.3402 3.45,0.68 5.1899,1.01 -1.98,6.3502 -2.81,12.99 -4.2599,19.47 3.2899,0.7402 6.62,1.3099 9.9998,1.52 -0.6398,1.04 -1.2699,2.0899 -1.8998,3.13 -4.4702,-0.9 -8.9402,-1.7901 -13.4101,-2.6901 2.0199,-7.3397 3.7601,-14.8399 4.3801,-22.4399 z M 228.25018,57.31 c 4.58,-0.9297 9.1401,-1.91 13.72,-2.84 -0.07,0.9 -0.22,2.6801 -0.29,3.5801 -2.73,0.08 -5.4198,0.51 -8.1,1.0001 0.4901,2.2598 0.97,4.5198 1.4601,6.77 2.5901,-0.5301 5.1699,-1.04 7.7701,-1.4902 -0.1301,0.7501 -0.3901,2.2402 -0.51,2.99 -2.2501,0.47 -4.49,0.9502 -6.73,1.4202 0.5298,2.37 1.0398,4.75 1.5398,7.1299 3.28,-0.68 6.5701,-1.4099 9.6602,-2.7201 -0.14,1.2501 -0.2801,2.5002 -0.4201,3.7503 -4.4099,0.9297 -8.8401,1.7699 -13.21,2.8499 -1.34,-7.5299 -2.5101,-15.16 -4.8901,-22.4402 z m -14.6299,3.42 c 1.4301,-0.3699 2.8599,-0.7398 4.2999,-1.12 1.41,7.71 4.0402,15.12 5.73,22.76 -6.66,-3.6899 -12.8798,-8.1199 -19.3298,-12.1598 1.5599,5.1599 2.6,10.48 4.5599,15.52 -1.44,0.39 -2.88,0.7798 -4.3101,1.18 -0.5499,-5.1202 -2.3499,-9.97 -3.5198,-14.9601 -0.5502,-2.52 -1.4202,-4.9601 -2.8701,-7.0999 1.4499,-0.3402 2.9101,-0.6801 4.3801,-1.0202 4.9799,3.2502 9.9598,6.51 14.9698,9.72 -1.1999,-4.2999 -2.0098,-8.75 -3.9099,-12.82 z m 232.5501,0.18 c 1.4499,0.4 2.8899,0.8002 4.3498,1.2002 1.1001,8.1799 1.4201,16.4699 3.2,24.55 -1.7898,-0.46 -3.5699,-0.9201 -5.3498,-1.3901 -0.0102,-2.6901 -0.2001,-5.3799 -0.5202,-8.06 -2.59,-0.7101 -5.18,-1.4301 -7.77,-2.1399 -1.6399,2.1098 -3.1898,4.29 -4.4498,6.6498 -1.3901,-0.4099 -2.7902,-0.8198 -4.1701,-1.2197 3.85,-4.4303 7.3199,-9.18 11.0801,-13.6903 1.4998,-1.7699 2.7898,-3.7199 3.63,-5.9 z m -4.1502,11.66 c 1.8301,0.51 3.67,1.01 5.51,1.52 -0.3098,-2.5299 -0.6199,-5.0698 -0.94,-7.6 -1.5199,2.0302 -3.0498,4.0502 -4.57,6.08 z m 20.8301,-6.69 c 5.9301,1.8403 11.88,3.67 17.72,5.79 -0.83,0.8802 -1.6501,1.7502 -2.4699,2.63 -1.9201,-0.9 -3.88,-1.7098 -5.8501,-2.4599 -1.87,6.4301 -4.3401,12.6899 -5.8901,19.2101 -1.6299,-0.5601 -3.2599,-1.1202 -4.8898,-1.6701 3.06,-5.95 4.32,-12.61 6.6399,-18.8601 -2.4701,-0.7398 -4.9601,-1.3898 -7.49,-1.8598 0.7401,-0.93 1.48,-1.8502 2.23,-2.7802 z m -280.37,4.7302 c 1.62,-0.58 3.24,-1.16 4.86,-1.7501 2.1799,7.3099 4.6599,14.57 7.78,21.5299 -1.65,0.5902 -3.2899,1.1801 -4.93,1.77 -1.9001,-7.38 -4.3999,-14.6798 -7.71,-21.5498 z m -19.8201,8.3599 c 4.25,-1.9599 8.4901,-3.96 12.8302,-5.6999 0.0998,0.8498 0.2798,2.56 0.3699,3.4098 -2.62,0.75 -5.1301,1.7802 -7.59,2.9401 0.9601,2.0701 1.9199,4.14 2.88,6.2101 2.3901,-1.1401 4.79,-2.2402 7.23,-3.2601 0.0301,0.7801 0.07,2.3499 0.1001,3.1399 -2.0401,0.9103 -4.0802,1.8103 -6.1101,2.7202 1.2699,3.16 2.7099,6.26 4.4099,9.2199 -1.5798,0.7399 -3.14,1.4899 -4.6999,2.2601 -2.4301,-7.2502 -5.7101,-14.26 -9.4201,-20.9401 z m 323.5901,-5.0499 c 4.3801,1.7399 8.75,3.5201 13.1001,5.36 -0.7901,0.9298 -1.5701,1.8598 -2.35,2.78 -2.2801,-1.48 -4.7301,-2.6502 -7.2402,-3.6701 -0.8498,2.13 -1.7099,4.2702 -2.56,6.4001 2.4302,0.9799 4.8702,1.9599 7.2902,2.99 -0.4802,0.58 -1.4602,1.7498 -1.95,2.34 -2.1501,-0.87 -4.3101,-1.7402 -6.4502,-2.6201 -0.9,2.24 -1.8099,4.47 -2.7199,6.7 3.1099,1.4 6.31,2.6201 9.6599,3.3701 -0.9898,0.7999 -1.7299,2.0398 -2.98,2.4199 -4.22,-1.2999 -8.1998,-3.2799 -12.3098,-4.8801 3.4498,-6.77 6.41,-13.8798 8.5099,-21.1898 z m 20.67,19.3601 c 1.6401,-0.5503 3.8701,0.9099 3.7499,2.7 0.4301,2.1299 -2.05,4.0198 -3.96,3.1399 -2.88,-0.65 -2.6898,-5.3501 0.2101,-5.8399 z m -357.8899,0.9 c 2.4398,-2.7502 7.09,0.6499 4.9898,3.7697 -2.2498,3.5502 -7.77,-0.4898 -4.9898,-3.7697 z m 36.18,30.4698 c 14.9998,-2.59 31.4699,-0.2401 43.9098,8.97 10.7901,7.7202 17.6802,20.19 19.4301,33.2501 2.3799,15.7099 -1.3,32.8499 -12.03,44.8999 -19.66,22.36 -58.42,22.6701 -78.9999,1.4301 -9.4101,-9.8702 -14.2701,-23.6701 -13.8801,-37.2302 -0.21,-13.7497 4.83,-27.76 14.58,-37.5798 7.28,-7.2402 16.8999,-11.98 26.9901,-13.7401 z m 6.9599,10.0001 c -8.96,0.9198 -17.1099,6.3 -22.0601,13.7299 -7.9398,11.74 -9.93,26.96 -6.62,40.61 2.1402,9.1301 7.0302,17.9699 14.9202,23.33 11.8,8.24 29.2898,7.09 39.7,-2.9699 9.9,-9.5202 13.3399,-24.0301 12.4399,-37.3802 -0.7399,-11.1897 -4.9899,-22.6698 -13.5899,-30.1799 -6.7201,-5.8799 -16.02,-8.2599 -24.7901,-7.1399 z m 73.6101,-1.4902 c 8.5399,-8.28 21.3899,-10.55 32.8099,-8.6198 5.7699,0.9198 10.94,3.88 15.37,7.5699 -2.06,5.0601 -4.1899,10.08 -6.27,15.1299 -0.6001,-0.22 -1.8099,-0.6797 -2.41,-0.9 -2.7601,-9.9899 -15.2901,-14.76 -24.23,-9.9598 -7.3301,3.5898 -10.47,14 -5.3399,20.6399 5.11,6.6501 13.72,8.6499 21.0799,11.77 8.9501,3.89 18.11,9.9201 21.4701,19.55 4.0099,12.6099 -2.1001,27.1001 -13.1201,34.0699 -8.8501,5.9201 -20.1101,6.98 -30.38,5.1202 -7.7701,-1.4202 -15.31,-4.9901 -20.4999,-11.0602 1.6798,-5.4499 3.2199,-10.95 4.7999,-16.4299 0.9201,0.2701 1.8499,0.5301 2.7799,0.8101 3.0002,13.0301 18.65,19.6498 30.7902,16.1099 10.44,-3.1399 14.7399,-18.0799 7.0498,-25.99 -9.8198,-9.7399 -25.2298,-10.23 -35.1,-19.9298 -10.0899,-10.0602 -9.0799,-28.3102 1.2002,-37.8803 z M 64.620285,125.5201 c 10.3397,-0.4099 20.6898,-0.15 31.03,-0.5199 10.580095,-0.25 22.179995,1.3198 30.340095,8.6698 9.4499,8.2103 10.6699,23.4601 3.9798,33.7402 -4.4299,7.17 -12.2,11.74 -20.37,13.29 7.1402,8.35 13.93,16.99 20.7901,25.5798 8.9901,11.5401 19.09,22.6001 31.6999,30.24 8.1601,4.9901 17.6901,7.9801 27.32,7.4401 0.6001,1.22 1.2101,2.45 1.8201,3.6799 -7.66,2.2 -15.6699,3.7301 -23.6599,2.8202 -9.2001,-0.8699 -17.89,-4.71 -25.31,-10.11 -10.9502,-7.9501 -19.73,-18.3802 -28.2002,-28.8099 -8.6799,-10.8601 -17.229795,-21.8302 -26.079595,-32.5602 0.7197,-0.9799 0.9499,-2.7799 2.5294,-2.59 8.3503,-0.5599 17.390295,-2.9801 22.800195,-9.8399 6.7901,-8.39 5.51,-23.44 -4.6398,-28.62 -7.23,-3.6202 -15.619995,-3.6502 -23.499995,-3.1201 0.0198,28.0601 0,56.1299 0,84.1901 -0.0701,2.9299 1.6398,5.44 2.8102,7.9999 -7.9801,-0.03 -15.9502,-0.01 -23.9204,-0.0201 1.5999,-2.7998 4.2403,-5.4298 3.8704,-8.9099 -0.0204,-27.35 -0.0303,-54.71 0.0097,-82.07 0.2199,-3.7999 -1.9599,-7.0901 -3.32,-10.48 z m 262.409995,-0.0499 c 7.99,-0.03 15.9899,0 23.9901,-0.03 -1.2302,2.73 -3.0801,5.4 -2.8301,8.53 0.0301,11.8998 0.0301,23.8099 0.01,35.71 17.81,0.0198 35.6201,-0.0301 53.42,0.0499 -0.01,-11.95 0.01,-23.9001 0.0201,-35.8399 0.3098,-3.3001 -2.1801,-5.7801 -3.7001,-8.4401 7.9901,0.0201 15.9801,0.01 23.9701,0.01 -1.1801,2.7403 -3.06,5.3802 -2.9602,8.4801 0.0201,28.0199 0.0501,56.05 -0.0199,84.0699 -0.2999,3.2902 1.7399,6.0602 3.0201,8.9201 -8.0201,0.2101 -16.0402,0.0799 -24.05,0.1199 1.37,-2.5999 3.8698,-4.93 3.7298,-8.0799 0.0201,-12.8899 -0.04,-25.7898 0,-38.6801 -17.8098,0.0402 -35.6199,0.03 -53.4299,0.0201 0.0399,12.8801 -0.01,25.7601 0.01,38.6399 -0.0598,2.9702 1.72,5.51 2.8902,8.1201 -8.0802,-0.03 -16.1402,-0.01 -24.2102,-0.01 1.6002,-2.8601 4.3702,-5.5 4.0301,-9.0399 -0.0599,-28.0202 -0.0199,-56.0501 -0.0199,-84.0703 0.15,-3.2898 -2.41,-5.7699 -3.8701,-8.4798 z m 105.1801,0.01 c 20.7598,-0.0499 41.5099,0.04 62.27,-0.0201 -1.4901,4.5901 -3.13,9.14 -4.67,13.7203 -4.3101,-1.2703 -8.5,-3.5003 -13.11,-3.2001 -8.0101,0.0598 -16.0101,0.0598 -24.01,0.0298 0.0198,11.3201 0.03,22.6502 0,33.9701 11.9699,-0.3101 23.9899,0.5899 35.93,-0.4601 -1.3901,3.5501 -2.6601,7.1501 -3.9002,10.7501 -10.6798,0 -21.35,0.0301 -32.0199,0 0,11.99 0.0201,23.98 0,35.97 9.9899,0 19.98,-0.04 29.9699,0.03 5.4,0.1401 10.44,-2.0899 15.6302,-3.2799 -1.62,4.6499 -3.2502,9.29 -4.8101,13.96 -20.3499,0.0899 -40.7001,0.0499 -61.05,0.0899 1.1701,-3.2499 2.9199,-6.4599 2.73,-10.0199 -0.04,-27.0102 -0.0499,-54.0201 0,-81.04 0.2401,-3.7502 -1.6801,-7.1002 -2.9599,-10.5001 z m 73.11,0.01 c 6.3499,-0.0198 12.6998,0.0301 19.0599,-0.0399 19.0701,21.1102 38.01,42.3399 57.0501,63.4901 0.01,-18.33 -0.01,-36.6602 0.03,-54.9902 0.29,-3.2898 -2.2102,-5.7699 -3.7001,-8.4497 6.9101,0 13.8201,0.0198 20.74,-0.0103 -1.4099,3.0201 -3.3899,6.02 -3.1,9.51 0.08,31.4101 -0.03,62.82 0.0601,94.2202 -23.7702,-25.95 -47.3502,-52.09 -71.0302,-78.1302 -0.0298,22.3002 0.0201,44.5901 -0.0199,66.89 -0.2599,3.3001 1.7099,6.1002 2.9801,8.9901 -6.9001,0.03 -13.79,0.01 -20.6802,0.0201 1.5701,-2.8499 4.2801,-5.4601 3.9802,-8.96 -0.01,-27 -0.0601,-54 0.0198,-81 0.5301,-4.6001 -3.3299,-7.85 -5.3898,-11.5402 z m -445.180195,122.49 c 0.03,-2.0801 0.0501,-4.1502 0.07,-6.2201 22.0901,0.0202 44.180195,-0.01 66.260095,-0.01 2.1101,1.8099 5.36,2.9798 5.5301,6.1999 -23.9502,0.0899 -47.900095,0.0301 -71.860195,0.0301 z m 144.670095,-6.2201 c 130.5399,-0.11 261.0799,-0.0399 391.6199,0.0301 -0.01,2.0599 -0.01,4.1301 0,6.1999 -128.8599,-0.01 -257.7198,0.11 -386.5799,0.04 -2.0801,-1.7399 -5.01,-3.1499 -5.04,-6.27 z m 92.8899,40.3098 c 4.17,-3.6595 10.29,-3.2397 15.0401,-1.0301 -0.4899,1.2206 -0.9701,2.4302 -1.45,3.6502 -2.05,-1.8502 -4.75,-3.4597 -7.6099,-2.4798 -7.2402,2.34 -7.88,14.4598 -0.6701,17.2798 3.28,1.4102 6.7,-0.3 9.0301,-2.6099 0.25,0.9201 0.7398,2.7502 0.9799,3.67 -4.5,2.4698 -10.3799,2.95 -14.68,-0.1998 -5.98,-4.0105 -6.3301,-13.8603 -0.6401,-18.2804 z m 128.84,17.0201 c -3.8199,-8.1199 2.2901,-18.2296 10.91,-19.6297 2.1002,0.4499 0.5202,2.2097 -0.72,2.5898 -3.1598,1.5103 -5.26,4.3602 -6.8899,7.3601 2.7601,-0.5901 5.8601,-1.6903 8.5499,-0.1601 4.42,2.3 4.3101,9.2602 0.46,12.0501 -3.7,2.91 -10.1599,2.33 -12.31,-2.2102 z m 5.5202,-7.6898 c -3.7601,1.8898 -2.8001,8.9399 1.58,9.2199 5.8899,-0.4501 4.5599,-12.0999 -1.58,-9.2199 z m -206.06,-11.0999 c 2.9398,-1.62 6.3898,-0.7399 9.2698,0.5397 -0.5099,1.33 -1.0099,2.6702 -1.51,4.0101 -1.3099,-0.97 -2.2399,-3.0602 -4.1,-2.88 -2.4398,-0.2899 -4.61,2.7902 -2.85,4.7903 2.5402,2.3794 6.6802,2.4999 8.6701,5.5596 2.5699,3.85 -0.61,9.2801 -4.9201,9.97 -3.1399,0.8498 -6.3,-0.4201 -8.8299,-2.2399 0.4201,-1.4199 0.82,-2.85 1.2101,-4.2801 1.3799,1.9999 3.0699,4.18 5.7399,4.25 2.76,0.43 5.2701,-3.1898 3.3701,-5.4499 -2.27,-2.34 -5.9202,-2.6501 -8.21,-4.9699 -2.3301,-2.8398 -1.2901,-7.82 2.16,-9.2999 z m 21.0999,-0.6001 c 1.5999,0 3.21,0 4.8099,0 -0.36,7.5101 -0.5199,15.0698 0.1,22.5799 -1.6699,-0.0102 -3.3298,0 -4.9898,0.01 1.12,-7.4296 0.97,-15.1398 0.0799,-22.5898 z m 17.32,-0.0701 c 1.4,0.0502 2.81,0.0899 4.22,0.1302 4.03,4.5898 8.1501,9.1 12.23,13.6499 0.0199,-4.5799 0.3501,-9.1998 -0.5601,-13.7202 1.4,0.0102 2.8001,0.0102 4.2001,0.0102 -0.72,7.7 -0.1001,15.4499 -0.3801,23.1698 -5.2399,-5.6098 -10.3799,-11.3199 -15.48,-17.0598 0.0802,5.4899 -0.26,10.99 0.36,16.4597 -1.4499,0.0102 -2.8899,0.0303 -4.3399,0.0604 1.1801,-3.6803 0.65,-7.5603 0.7399,-11.3403 -0.0998,-3.8001 0.5301,-7.7599 -0.9899,-11.3599 z m 57.9699,22.6599 c 0.3901,-7.5098 0.55,-15.0899 -0.1199,-22.5898 4.61,0.03 9.2299,0.0198 13.8399,0.0102 -0.3898,1.0295 -0.7798,2.0698 -1.1599,3.1096 -2.6399,-0.47 -5.33,-0.5896 -8,-0.62 -0.01,2.4302 -0.01,4.8603 -0.01,7.3001 2.6898,-0.0301 5.37,-0.0397 8.06,-0.0198 -0.9201,3.8398 -5.21,2.2198 -8.0702,2.5698 0.0102,2.5699 0.0102,5.1398 0.0102,7.7199 3.3199,0.0301 6.66,-0.03 9.9199,-0.75 -0.3799,1.0803 -0.7501,2.1603 -1.12,3.2403 -4.4501,0.0198 -8.9,0 -13.3501,0.0297 z m 34.6802,-19.8297 c 2.0098,-0.9601 4.0198,-1.95 6.0299,-2.9299 -0.0601,7.5798 -0.65,15.2299 0.3299,22.7596 -1.6599,0 -3.3199,0 -4.9799,0.0301 1.4199,-5.8802 0.37,-11.9699 0.76,-17.9501 -0.72,-0.6398 -1.4301,-1.27 -2.1399,-1.9097 z m 20.7,10.4198 c -4.42,-3.1198 -3.0702,-10.9698 1.9698,-12.6998 3.6601,-1.6903 8.7202,-0.6199 10.5202,3.25 2.85,6.1299 0.1299,14.0096 -5.6001,17.4597 -2.0701,1.2203 -4.71,2.9404 -6.9999,1.15 3.8699,-2.0296 7.35,-4.82 9.2798,-8.8398 -2.99,0.5697 -6.48,1.6698 -9.1698,-0.3201 z m 4.0598,-10.6699 c -2.5699,1.4599 -3.0098,5.0001 -1.8298,7.5002 0.9698,2.2595 4.4598,2.3998 5.87,0.5001 2.74,-2.7706 0.4099,-9.7002 -4.0402,-8.0003 z m 20.99,-1.08 c 3.5801,-2.6501 9.6202,-2.3601 11.9401,1.8199 3.31,6.0698 0.54,14.2999 -5.1999,17.8602 -2.1302,1.2501 -4.8002,2.9795 -7.1901,1.2597 3.86,-2.08 7.5501,-4.78 9.2699,-8.9801 -2.8899,0.7206 -6.2498,1.7405 -8.9399,-0.0899 -4,-2.6396 -3.6099,-9.1698 0.1199,-11.8698 z m 3.96,1.05 c -2.99,1.4598 -3.3398,5.7898 -1.55,8.3098 1.8502,1.9204 5.4502,1.0204 6.2501,-1.4797 1.3499,-2.95 -0.8901,-8.2205 -4.7001,-6.8301 z"
     style="fill:#ffe294;fill-rule:evenodd"
     id="path2" />
  <path
     d="m 22.060085,9.5301 c 1.8,-0.5899 3.7001,-0.7299 5.5902,-0.7801 197.649895,0.0201 395.309995,0.0201 592.969895,0 4.2701,0.0802 8.5901,-0.3399 12.8202,0.4703 7.49,1.6897 13.2098,9.0799 12.7599,16.7998 -0.03,99.6602 0,199.33 -0.01,298.9902 0.04,8.67 -7.81,16.4698 -16.5002,16.2399 -198.6899,-0.0102 -397.37,-0.0303 -596.049995,0.0102 -4.5802,-0.0802 -9.4598,0.5296 -13.7001,-1.6001 -5.9301,-2.7601 -9.7898,-9.1602 -9.5301,-15.6903 0,-99.3198 0,-198.6398 0,-297.9499 -0.3096,-7.3001 4.6604,-14.37 11.6501,-16.49 z M 332.17028,46.69 c -7.37,2.27 -9.71,12.28 -5.39,18.25 4.1601,5.9701 13.9399,6.34 18.7701,1.0001 4.14,-4.72 3.8699,-12.75 -0.7801,-17.03 -3.38,-2.99 -8.3999,-3.5799 -12.6,-2.2201 z m -36.29,0.8501 c 1.0401,3.7401 0.9499,7.6499 1.1699,11.4999 0.18,3.7502 0.6701,7.5302 0.0201,11.2601 1.77,-0.1001 3.5501,-0.1999 5.33,-0.29 -0.6001,-3.3698 -0.7999,-6.7799 -0.9799,-10.1801 3.7298,-0.22 7.4599,-0.43 11.1999,-0.6398 0.3,3.4098 0.4499,6.85 0.11,10.27 1.7399,-0.11 3.4699,-0.2002 5.2101,-0.29 -1.0001,-7.5201 -1.47,-15.16 -1.2401,-22.75 -1.7499,0.0498 -3.5,0.1 -5.2501,0.1499 0.5601,3.1399 1.5701,6.6901 0.5,9.72 -3.5498,0.4201 -7.1399,0.36 -10.6999,0.6401 -0.15,-3.28 -0.32,-6.5702 -0.1001,-9.8501 -1.76,0.1601 -3.52,0.3101 -5.2699,0.46 z m 65.96,1.6402 c -6.2399,3.5197 -7.38,13.0399 -2.5101,18.1598 4.2202,4.5899 11.5801,4.72 16.7202,1.6299 -0.3402,-1.33 -0.6701,-2.66 -1.0001,-3.99 -2.4199,2.3 -5.8499,4.03 -9.1899,2.6101 -7.1,-2.77 -6.2901,-14.9201 0.93,-16.9801 2.88,-0.8098 5.3898,0.9502 7.5699,2.5801 0.44,-1.3201 0.8901,-2.6299 1.34,-3.95 -4.3501,-1.9401 -9.62,-2.7 -13.86,-0.0598 z m -89.2199,2.7297 c -5.6401,4.79 -4.9,14.9 1.4298,18.7702 4.9201,3.1898 11.5801,2.1098 15.8502,-1.6999 -0.5001,-1.2402 -0.9902,-2.4903 -1.48,-3.7401 -2.12,2.5699 -5.2001,5.0499 -8.7602,4.0799 -7.3298,-1.8 -8.6099,-13.71 -1.76,-16.9101 2.63,-1.54 5.4102,0.0701 7.77,1.3102 0.3101,-1.3201 0.62,-2.63 0.9301,-3.9501 -4.65,-1.51 -10.1999,-1.2699 -13.9799,2.1399 z m 118.5599,-1.2299 c -7.2601,1.8399 -10.4701,11.3499 -6.7601,17.5802 3.5601,6.1798 13.0802,7.7499 18.3801,2.9698 3.57,-3.2899 4.76,-8.75 3.35,-13.32 -1.91,-6.01 -9.2001,-8.78 -14.97,-7.23 z m 26.2701,3.2 c -0.62,7.6 -2.3602,15.1002 -4.3801,22.4399 4.4699,0.9 8.9399,1.7901 13.4101,2.6901 0.6299,-1.0401 1.26,-2.09 1.8998,-3.13 -3.3798,-0.2101 -6.7099,-0.7798 -9.9998,-1.52 1.4499,-6.48 2.2799,-13.1198 4.2599,-19.47 -1.7399,-0.33 -3.4699,-0.6698 -5.1899,-1.01 z M 228.25018,57.31 c 2.38,7.2802 3.5501,14.9103 4.8901,22.4402 4.3699,-1.08 8.8001,-1.9202 13.21,-2.8499 0.14,-1.2501 0.2801,-2.5002 0.4201,-3.7503 -3.0901,1.3102 -6.3802,2.0401 -9.6602,2.7201 -0.5,-2.3799 -1.01,-4.7599 -1.5398,-7.1299 2.24,-0.47 4.4799,-0.9502 6.73,-1.4202 0.1199,-0.7498 0.3799,-2.2399 0.51,-2.99 -2.6002,0.4502 -5.18,0.9601 -7.7701,1.4902 -0.4901,-2.2502 -0.97,-4.5102 -1.4601,-6.77 2.6802,-0.4901 5.37,-0.9201 8.1,-1.0001 0.07,-0.9 0.22,-2.6801 0.29,-3.5801 -4.5799,0.93 -9.14,1.9103 -13.72,2.84 z m -14.6299,3.42 c 1.9001,4.07 2.71,8.5201 3.9099,12.82 -5.01,-3.21 -9.9899,-6.4698 -14.9698,-9.72 -1.47,0.3401 -2.9302,0.68 -4.3801,1.0202 1.4499,2.1398 2.3199,4.5799 2.8701,7.0999 1.1699,4.9901 2.9699,9.8399 3.5198,14.9601 1.4301,-0.4002 2.8701,-0.79 4.3101,-1.18 -1.9599,-5.04 -3,-10.3601 -4.5599,-15.52 6.45,4.0399 12.6698,8.4699 19.3298,12.1598 -1.6898,-7.64 -4.32,-15.05 -5.73,-22.76 -1.44,0.3802 -2.8698,0.7501 -4.2999,1.12 z m 232.5501,0.18 c -0.8402,2.1801 -2.1302,4.1301 -3.63,5.9 -3.7602,4.5103 -7.2301,9.26 -11.0801,13.6903 1.3799,0.3999 2.78,0.8098 4.1701,1.2197 1.26,-2.3598 2.8099,-4.54 4.4498,-6.6498 2.59,0.7098 5.18,1.4298 7.77,2.1399 0.3201,2.6801 0.51,5.3699 0.5202,8.06 1.7799,0.47 3.56,0.9301 5.3498,1.3901 -1.7799,-8.0801 -2.0999,-16.3701 -3.2,-24.55 -1.4599,-0.4 -2.8999,-0.8002 -4.3498,-1.2002 z m 16.6799,4.97 c -0.75,0.93 -1.4899,1.8502 -2.23,2.7802 2.5299,0.47 5.0199,1.12 7.49,1.8598 -2.3199,6.2501 -3.5799,12.9101 -6.6399,18.8601 1.6299,0.5499 3.2599,1.11 4.8898,1.6701 1.55,-6.5202 4.0201,-12.78 5.8901,-19.2101 1.9701,0.7501 3.93,1.5599 5.8501,2.4599 0.8198,-0.8798 1.6399,-1.7498 2.4699,-2.63 -5.84,-2.12 -11.7899,-3.9497 -17.72,-5.79 z m -280.37,4.7302 c 3.3101,6.87 5.8099,14.1698 7.71,21.5498 1.6401,-0.5899 3.28,-1.1798 4.93,-1.77 -3.1201,-6.9599 -5.6001,-14.22 -7.78,-21.5299 -1.62,0.5901 -3.24,1.1701 -4.86,1.7501 z m -19.8201,8.3599 c 3.71,6.6801 6.99,13.6899 9.4201,20.9401 1.5599,-0.7702 3.1201,-1.5202 4.6999,-2.2601 -1.7,-2.9599 -3.14,-6.0599 -4.4099,-9.2199 2.0299,-0.9099 4.07,-1.8099 6.1101,-2.7202 -0.0301,-0.79 -0.07,-2.3598 -0.1001,-3.1399 -2.44,1.0199 -4.8399,2.12 -7.23,3.2601 -0.9601,-2.0701 -1.9199,-4.14 -2.88,-6.2101 2.4599,-1.1599 4.97,-2.1901 7.59,-2.9401 -0.0901,-0.8498 -0.2701,-2.56 -0.3699,-3.4098 -4.3401,1.7399 -8.5802,3.74 -12.8302,5.6999 z m 323.5901,-5.0499 c -2.0999,7.31 -5.0601,14.4198 -8.5099,21.1898 4.11,1.6002 8.0898,3.5802 12.3098,4.8801 1.2501,-0.3801 1.9902,-1.62 2.98,-2.4199 -3.3499,-0.75 -6.55,-1.9701 -9.6599,-3.3701 0.91,-2.23 1.8199,-4.46 2.7199,-6.7 2.1401,0.8799 4.3001,1.7501 6.4502,2.6201 0.4898,-0.5902 1.4698,-1.76 1.95,-2.34 -2.42,-1.0301 -4.86,-2.0101 -7.2902,-2.99 0.8501,-2.1299 1.7102,-4.2701 2.56,-6.4001 2.5101,1.0199 4.9601,2.1901 7.2402,3.6701 0.7799,-0.9202 1.5599,-1.8502 2.35,-2.78 -4.3501,-1.8399 -8.72,-3.6201 -13.1001,-5.36 z m 20.67,19.3601 c -2.8999,0.4898 -3.0901,5.1899 -0.2101,5.8399 1.91,0.8799 4.3901,-1.01 3.96,-3.1399 0.1202,-1.7901 -2.1098,-3.2503 -3.7499,-2.7 z m -357.8899,0.9 c -2.7802,3.2799 2.74,7.3199 4.9898,3.7697 2.1002,-3.1198 -2.55,-6.5199 -4.9898,-3.7697 z m 36.18,30.4698 c -10.0902,1.7601 -19.7101,6.4999 -26.9901,13.7401 -9.75,9.8198 -14.79,23.8301 -14.58,37.5798 -0.39,13.5601 4.47,27.36 13.8801,37.2302 20.5799,21.24 59.3399,20.9299 78.9999,-1.4301 10.73,-12.05 14.4099,-29.19 12.03,-44.8999 -1.7499,-13.0601 -8.64,-25.5299 -19.4301,-33.2501 -12.4399,-9.2101 -28.91,-11.56 -43.9098,-8.97 z m 80.57,8.5099 c -10.2801,9.5701 -11.2901,27.8201 -1.2002,37.8803 9.8702,9.6998 25.2802,10.1899 35.1,19.9298 7.6901,7.9101 3.3902,22.8501 -7.0498,25.99 -12.1402,3.5399 -27.79,-3.0798 -30.7902,-16.1099 -0.93,-0.28 -1.8598,-0.54 -2.7799,-0.8101 -1.58,5.4799 -3.1201,10.98 -4.7999,16.4299 5.1899,6.0701 12.7298,9.64 20.4999,11.0602 10.2699,1.8598 21.5299,0.7999 30.38,-5.1202 11.02,-6.9698 17.13,-21.46 13.1201,-34.0699 -3.3601,-9.6299 -12.52,-15.66 -21.4701,-19.55 -7.3599,-3.1201 -15.9699,-5.1199 -21.0799,-11.77 -5.1301,-6.6399 -1.9902,-17.0501 5.3399,-20.6399 8.9399,-4.8002 21.4699,-0.0301 24.23,9.9598 0.6001,0.2203 1.8099,0.68 2.41,0.9 2.0801,-5.0499 4.21,-10.0698 6.27,-15.1299 -4.43,-3.6899 -9.6001,-6.6501 -15.37,-7.5699 -11.42,-1.9302 -24.27,0.3398 -32.8099,8.6198 z M 64.620285,125.5201 c 1.3601,3.3899 3.5399,6.6801 3.32,10.48 -0.04,27.36 -0.0301,54.72 -0.0097,82.07 0.3699,3.4801 -2.2705,6.1101 -3.8704,8.9099 7.9702,0.0102 15.9403,-0.01 23.9204,0.0201 -1.1704,-2.5599 -2.8803,-5.07 -2.8102,-7.9999 0,-28.0602 0.0198,-56.13 0,-84.1901 7.88,-0.5301 16.269995,-0.5001 23.499995,3.1201 10.1498,5.18 11.4299,20.23 4.6398,28.62 -5.4099,6.8598 -14.449895,9.28 -22.800195,9.8399 -1.5795,-0.1899 -1.8097,1.6101 -2.5294,2.59 8.8498,10.73 17.399695,21.7001 26.079595,32.5602 8.4702,10.4297 17.25,20.8598 28.2002,28.8099 7.42,5.4 16.1099,9.2401 25.31,10.11 7.99,0.9099 15.9999,-0.6202 23.6599,-2.8202 -0.61,-1.2299 -1.22,-2.4599 -1.8201,-3.6799 -9.6299,0.54 -19.1599,-2.45 -27.32,-7.4401 -12.6099,-7.6399 -22.7098,-18.6999 -31.6999,-30.24 -6.8601,-8.5898 -13.6499,-17.2298 -20.7901,-25.5798 8.17,-1.55 15.9401,-6.12 20.37,-13.29 6.6901,-10.2801 5.4701,-25.5299 -3.9798,-33.7402 -8.1601,-7.35 -19.76,-8.9198 -30.340095,-8.6698 -10.3402,0.3699 -20.6903,0.11 -31.03,0.5199 z m 262.409995,-0.0499 c 1.4601,2.7099 4.0201,5.19 3.8701,8.4798 0,28.0202 -0.04,56.0501 0.0199,84.0703 0.3401,3.5399 -2.4299,6.1798 -4.0301,9.0399 8.07,0 16.13,-0.0201 24.2102,0.01 -1.1702,-2.6101 -2.95,-5.1499 -2.8902,-8.1201 -0.0199,-12.8798 0.03,-25.7598 -0.01,-38.6399 17.81,0.01 35.6201,0.0201 53.4299,-0.0201 -0.04,12.8903 0.0201,25.7902 0,38.6801 0.14,3.1499 -2.3598,5.48 -3.7298,8.0799 8.0098,-0.04 16.0299,0.0902 24.05,-0.1199 -1.2802,-2.8599 -3.32,-5.6299 -3.0201,-8.9201 0.07,-28.0199 0.04,-56.05 0.0199,-84.0699 -0.0998,-3.0999 1.7801,-5.7398 2.9602,-8.4801 -7.99,0 -15.98,0.0102 -23.9701,-0.01 1.52,2.66 4.0099,5.14 3.7001,8.4401 -0.0102,11.9398 -0.03,23.8899 -0.0201,35.8399 -17.7999,-0.08 -35.61,-0.0301 -53.42,-0.0499 0.0201,-11.9001 0.0201,-23.8102 -0.01,-35.71 -0.25,-3.13 1.5999,-5.8 2.8301,-8.53 -8.0002,0.03 -16.0001,0 -23.9901,0.03 z m 105.1801,0.01 c 1.2798,3.3999 3.2,6.7499 2.9599,10.5001 -0.0499,27.0199 -0.04,54.0298 0,81.04 0.1899,3.56 -1.5599,6.77 -2.73,10.0199 20.3499,-0.04 40.7001,0 61.05,-0.0899 1.5599,-4.67 3.1901,-9.3101 4.8101,-13.96 -5.1902,1.19 -10.2302,3.42 -15.6302,3.2799 -9.9899,-0.07 -19.98,-0.03 -29.9699,-0.03 0.0201,-11.99 0,-23.98 0,-35.97 10.6699,0.0301 21.3401,0 32.0199,0 1.2401,-3.6 2.5101,-7.2 3.9002,-10.7501 -11.9401,1.05 -23.9601,0.15 -35.93,0.4601 0.03,-11.3199 0.0198,-22.65 0,-33.9701 7.9999,0.03 15.9999,0.03 24.01,-0.0298 4.61,-0.3002 8.7999,1.9298 13.11,3.2001 1.54,-4.5803 3.1799,-9.1302 4.67,-13.7203 -20.7601,0.0601 -41.5102,-0.0298 -62.27,0.0201 z m 73.11,0.01 c 2.0599,3.6902 5.9199,6.9401 5.3898,11.5402 -0.0799,27 -0.0298,54 -0.0198,81 0.2999,3.4999 -2.4101,6.1101 -3.9802,8.96 6.8902,-0.0102 13.7801,0.01 20.6802,-0.0201 -1.2702,-2.8899 -3.24,-5.69 -2.9801,-8.9901 0.04,-22.2999 -0.01,-44.5898 0.0199,-66.89 23.68,26.0402 47.26,52.1802 71.0302,78.1302 -0.0901,-31.4004 0.0199,-62.8103 -0.0601,-94.2204 -0.2899,-3.49 1.6901,-6.4899 3.1,-9.51 -6.9199,0.0301 -13.8299,0.0103 -20.74,0.0103 1.4899,2.6798 3.9901,5.1599 3.7001,8.4497 -0.04,18.33 -0.0201,36.6602 -0.03,54.9902 -19.0401,-21.1502 -37.98,-42.3799 -57.0501,-63.4901 -6.3601,0.07 -12.71,0.0201 -19.0599,0.0399 z m -445.180195,122.49 c 23.9601,0 47.909995,0.0598 71.860195,-0.0301 -0.1701,-3.2201 -3.42,-4.39 -5.5301,-6.1999 -22.0799,0 -44.169995,0.0301 -66.260095,0.01 -0.0199,2.0699 -0.04,4.14 -0.07,6.2201 z m 144.670095,-6.2201 c 0.03,3.1201 2.9599,4.5301 5.04,6.27 128.8601,0.07 257.72,-0.0499 386.5799,-0.04 -0.01,-2.0698 -0.01,-4.14 0,-6.1999 -130.54,-0.07 -261.08,-0.1401 -391.6199,-0.0301 z m 92.8899,40.3098 c -5.69,4.4201 -5.3399,14.2699 0.6401,18.2804 4.3001,3.1498 10.18,2.6696 14.68,0.1998 -0.2401,-0.9198 -0.7299,-2.7499 -0.9799,-3.67 -2.3301,2.3099 -5.7501,4.0201 -9.0301,2.6099 -7.2099,-2.82 -6.5701,-14.9398 0.6701,-17.2798 2.8599,-0.9799 5.5599,0.6296 7.6099,2.4798 0.4799,-1.22 0.9601,-2.4296 1.45,-3.6502 -4.7501,-2.2096 -10.8701,-2.6294 -15.0401,1.0301 z m 128.84,17.0201 c 2.1501,4.5402 8.61,5.1202 12.31,2.2102 3.8501,-2.7899 3.96,-9.7501 -0.46,-12.0501 -2.6898,-1.5302 -5.7898,-0.43 -8.5499,0.1601 1.6299,-2.9999 3.7301,-5.8498 6.8899,-7.3601 1.2402,-0.3801 2.8202,-2.1399 0.72,-2.5898 -8.6199,1.4001 -14.7299,11.5098 -10.91,19.6297 z m -200.5398,-18.7897 c -3.4501,1.4799 -4.4901,6.4601 -2.16,9.2999 2.2898,2.3198 5.94,2.6299 8.21,4.9699 1.9,2.2601 -0.6101,5.8799 -3.3701,5.4499 -2.67,-0.07 -4.36,-2.2501 -5.7399,-4.25 -0.3901,1.4301 -0.79,2.8602 -1.2101,4.2801 2.5299,1.8198 5.69,3.0897 8.8299,2.2399 4.3101,-0.6899 7.49,-6.12 4.9201,-9.97 -1.9899,-3.0597 -6.1299,-3.1802 -8.6701,-5.5596 -1.76,-2.0001 0.4102,-5.0802 2.85,-4.7903 1.8601,-0.1802 2.7901,1.91 4.1,2.88 0.5001,-1.3399 1.0001,-2.6801 1.51,-4.0101 -2.88,-1.2796 -6.33,-2.1597 -9.2698,-0.5397 z m 21.0999,-0.6001 c 0.8901,7.45 1.0401,15.1602 -0.0799,22.5898 1.66,-0.01 3.3199,-0.0201 4.9898,-0.01 -0.6199,-7.5101 -0.46,-15.0698 -0.1,-22.5799 -1.5999,0 -3.21,0 -4.8099,0 z m 17.32,-0.0701 c 1.52,3.6 0.8901,7.5598 0.9899,11.3599 -0.0899,3.78 0.4402,7.66 -0.7399,11.3403 1.45,-0.0301 2.89,-0.0502 4.3399,-0.0604 -0.62,-5.4697 -0.2798,-10.9698 -0.36,-16.4597 5.1001,5.7399 10.2401,11.45 15.48,17.0598 0.28,-7.7199 -0.3399,-15.4698 0.3801,-23.1698 -1.4,0 -2.8001,0 -4.2001,-0.0102 0.9102,4.5204 0.58,9.1403 0.5601,13.7202 -4.0799,-4.5499 -8.2,-9.0601 -12.23,-13.6499 -1.41,-0.0403 -2.82,-0.08 -4.22,-0.1302 z m 57.9699,22.6599 c 4.4501,-0.0297 8.9,-0.01 13.3501,-0.0297 0.3699,-1.08 0.7401,-2.16 1.12,-3.2403 -3.2599,0.72 -6.6,0.7801 -9.9199,0.75 0,-2.5801 0,-5.15 -0.0102,-7.7199 2.8602,-0.35 7.1501,1.27 8.0702,-2.5698 -2.69,-0.0199 -5.3702,-0.0103 -8.06,0.0198 0,-2.4398 0,-4.8699 0.01,-7.3001 2.67,0.0304 5.3601,0.15 8,0.62 0.3801,-1.0398 0.7701,-2.0801 1.1599,-3.1096 -4.61,0.01 -9.2299,0.0198 -13.8399,-0.0102 0.6699,7.4999 0.51,15.08 0.1199,22.5898 z m 34.6802,-19.8297 c 0.7098,0.6397 1.4199,1.2699 2.1399,1.9097 -0.39,5.9802 0.6599,12.0699 -0.76,17.9501 1.66,-0.0301 3.32,-0.0301 4.9799,-0.0301 -0.9799,-7.5297 -0.39,-15.1798 -0.3299,-22.7596 -2.0101,0.9799 -4.0201,1.9698 -6.0299,2.9299 z m 20.7,10.4198 c 2.6898,1.9899 6.1798,0.8898 9.1698,0.3201 -1.9298,4.0198 -5.4099,6.8102 -9.2798,8.8398 2.2899,1.7904 4.9298,0.0703 6.9999,-1.15 5.73,-3.4501 8.4501,-11.3298 5.6001,-17.4597 -1.8,-3.8699 -6.8601,-4.9403 -10.5202,-3.25 -5.04,1.73 -6.3898,9.58 -1.9698,12.6998 z m 25.0498,-11.7499 c -3.7298,2.7 -4.1199,9.2302 -0.1199,11.8698 2.6901,1.8304 6.05,0.8105 8.9399,0.0899 -1.7198,4.2001 -5.4099,6.9001 -9.2699,8.9801 2.3899,1.7198 5.0599,-0.01 7.1901,-1.2597 5.7399,-3.5603 8.5099,-11.7904 5.1999,-17.8602 -2.3199,-4.18 -8.36,-4.47 -11.9401,-1.8199 z M 334.05028,49.4201 c 4.1,-1.8499 8.7001,1.4601 9.39,5.6401 1.6299,5.04 -1.5999,12.23 -7.6099,11.5999 -7.9801,-1.2399 -8.75,-14.08 -1.7801,-17.24 z m 59.0901,4.2199 c 3.4098,-1.2498 7.5898,0.93 8.54,4.4501 1.5599,4.83 -0.76,11.45 -6.0602,12.74 -4.0598,0.8799 -8.0099,-2.7799 -8.1499,-6.8 -0.2801,-4.0799 1.6299,-8.82 5.6701,-10.3901 z m 48.8798,18.93 c 1.5202,-2.0298 3.0501,-4.0498 4.57,-6.08 0.3201,2.5302 0.6302,5.0701 0.94,7.6 -1.84,-0.51 -3.6799,-1.01 -5.51,-1.52 z m -249.8499,62.0802 c 8.7701,-1.12 18.07,1.26 24.7901,7.1399 8.6,7.5101 12.85,18.9902 13.5899,30.1799 0.9,13.3501 -2.5399,27.86 -12.4399,37.3802 -10.4102,10.0599 -27.9,11.2099 -39.7,2.9699 -7.89,-5.3601 -12.78,-14.1999 -14.9202,-23.33 -3.31,-13.65 -1.3198,-28.87 6.62,-40.61 4.9502,-7.4299 13.1001,-12.8101 22.0601,-13.7299 z m 189.6599,147.56 c 4.4501,-1.6999 6.7802,5.2297 4.0402,8.0003 -1.4102,1.8997 -4.9002,1.7594 -5.87,-0.5001 -1.18,-2.5001 -0.7401,-6.0403 1.8298,-7.5002 z m 24.95,-0.03 c 3.81,-1.3904 6.05,3.8801 4.7001,6.8301 -0.7999,2.5001 -4.3999,3.4001 -6.2501,1.4797 -1.7898,-2.52 -1.44,-6.85 1.55,-8.3098 z m 25.2802,9.22 c 6.1399,-2.88 7.4699,8.7698 1.58,9.2199 -4.3801,-0.28 -5.3401,-7.3301 -1.58,-9.2199 z"
     style="fill:#8d0a0d;fill-rule:evenodd"
     id="path4" />
</svg>
