<?xml version="1.0" encoding="UTF-8" standalone="no"?>
<svg
   version="1.1"
   width="486.60861"
   height="71.238403"
   id="svg4"
   viewBox="0 0 486.60861 71.238403"
   sodipodi:docname="06d1d9fd82d5fbe62c9e7b5c95945596.cdr"
   xmlns:inkscape="http://www.inkscape.org/namespaces/inkscape"
   xmlns:sodipodi="http://sodipodi.sourceforge.net/DTD/sodipodi-0.dtd"
   xmlns="http://www.w3.org/2000/svg"
   xmlns:svg="http://www.w3.org/2000/svg">
  <defs
     id="defs8" />
  <sodipodi:namedview
     id="namedview6"
     pagecolor="#ffffff"
     bordercolor="#666666"
     borderopacity="1.0"
     inkscape:pageshadow="2"
     inkscape:pageopacity="0.0"
     inkscape:pagecheckerboard="0" />
  <path
     d="m 266.8357,33.081001 c 0,0 -4.7353,-2.9293 -7.6655,-4.0603 0,0 -9.0601,-4.2001 -10.8598,-6.1988 0,0 -3.5268,-3.327 -1.4627,-7.1929 0,0 0.866,-2.5283 4.5967,-2.5283 0,0 4.8577,0.2679 4.8577,4.2602 v 5.6347 h 17.4141 l -0.0303,-8.2981 c 0,0 1.3385,-13.5876002 -20.5121,-14.18340024 0,0 -17.1825,-1.1319 -22.1105,8.12520004 0,0 -1.9344,2.0616002 -1.9344,9.2554002 v 5.1959 c 0,0 -0.1961,5.9944 2.8647,9.8544 0,0 1.732,2.5341 5.9964,5.3274 0,0 8.6565,4.6621 13.8521,7.3315 0,0 5.2466,2.9948 4.5547,7.7576 0,0 -0.4226,4.8869 -5.4921,4.6913 0,0 -4.6318,-0.2134 -4.6318,-5.0054 v -5.629 h -18.5531 v 8.1794 c 0,0 -0.5215,15.6401 23.3252,15.6401 h 0.0164 0.3796 c 3.0311,-0.0312 22.4646,-0.8283 23.4468,-16.0557 v -6.6549 c 0,0 0.8013,-10.118 -8.0521,-15.4463 z m -227.7275,-0.002 c 0,0 -4.7268,-2.9268 -7.6587,-4.0578 0,0 -9.0575,-4.1947 -10.8521,-6.1988 0,0 -3.5328,-3.3313 -1.4635,-7.1878 0,0 0.8608,-2.5317 4.5907,-2.5317 0,0 4.8611,0.2662 4.8611,4.2585 v 5.6347 H 46.004 l -0.0329,-8.2998 c 0,0 1.3292,-13.5876002 -20.5137,-14.18170024 0,0 -1.6424,-0.1066 -4.0578,0.0139 0,0 -13.2313,0.71090004 -17.9606,7.96930004 -0.0275,0.0507 -0.0655,0.093 -0.093,0.142 0,0 -1.9318,2.0608002 -1.9318,9.2554002 v 5.1959 c 0,0 -0.1996,5.991 2.8658,9.8544 0,0 1.7292,2.5341 5.9936,5.3274 0,0 8.6539,4.6621 13.8495,7.3256 0,0 5.2501,2.9948 4.559,7.7635 0,0 -0.4269,4.8869 -5.4902,4.6913 0,0 -4.6321,-0.2134 -4.6321,-5.0054 v -5.635 H 8e-4 v 8.1854 L 0,55.643001 v 0.0553 c 0.0059,1.3326 0.6001,15.5401 23.3235,15.5401 h 0.0164 0.3796 c 3.0308,-0.0312 22.4645,-0.8283 23.451,-16.0557 v -6.6549 c 0,0 0.7979,-10.118 -8.0623,-15.4488 z m 285.448,19.3164 c 0,0 0.2494,5.4567 -4.8068,5.4567 0,0 -5.3231,0.2849 -5.3231,-5.3206 L 314.371,2.5161008 H 295.4531 V 52.134601 c 0,0 -1.942,18.7775 24.5571,18.7775 0,0 23.0335,0.273 23.0335,-17.9178 V 2.5170008 h -18.4875 z m 81.773,-9.4604 h -0.7594 L 387.851,2.4747008 H 366.6665 V 68.960801 h 17.2429 l -1.0296,-40.4552 h 0.7654 l 18.3506,40.4552 h 20.556 V 2.4717008 H 405.087 l 1.2422,40.4628002 z m 57.8588,-10.7651 v 9.7571 h 4.7525 v 10.4743 c 0,5.1183 -4.3727,5.2132 -4.3727,5.2132 -5.3235,0 -5.1228,-4.8636 -5.1228,-4.8636 v -36.2288 c 0,-3.7341 4.7214,-3.9322 4.7214,-3.9322 4.534,0 4.5675,4.4512 4.5675,4.4512 v 5.5083 h 17.452 c 0.5715,-10.7504 -1.5726,-13.3543002 -1.5726,-13.3543002 -4.3274,-9.72280004 -20.7077,-9.18990004 -20.7077,-9.18990004 -25.1742,0 -22.3809,19.31190024 -22.3809,19.31190024 v 35.0297 c 0.5406,18.1131 25.3423,16.2742 25.7607,16.251 11.0353,-1.2223 14.3702,-4.7214 14.3702,-4.7214 3.0671,-2.2776 3.8563,-5.4326 3.8563,-5.4326 0.8747,-1.8386 1.0967,-7.6929 1.0967,-7.6929 v -20.581 z M 75.1768,2.7338008 63.7177,68.878001 h 18.54 l 6.7865,-51.2867 h 1.5236 l 6.7858,51.2867 h 18.5358 L 104.4346,2.7333008 H 75.1768 Z m 102.513,-0.2738 -5.8301,36.5369002 h -1.3643 L 164.9259,2.7871008 h -29.0866 l -1.4556,66.1615002 h 17.2214 l 0.2063,-49.8509 h 1.3533 l 9.1281,49.8449 h 18.1191 l 9.0158,-49.826 h 1.1991 l 0.415,49.832 h 17.3117 l -1.862,-66.4886002 z"
     style="fill:#0057a4;fill-rule:evenodd"
     id="path2" />
</svg>
