<?xml version="1.0" encoding="UTF-8" standalone="no"?>
<svg
   version="1.1"
   width="619.2182"
   height="171.3661"
   id="svg73"
   viewBox="0 0 619.2182 171.3661"
   sodipodi:docname="0704a6e4e82db6f47a3182c127382d32.cdr"
   xmlns:inkscape="http://www.inkscape.org/namespaces/inkscape"
   xmlns:sodipodi="http://sodipodi.sourceforge.net/DTD/sodipodi-0.dtd"
   xmlns="http://www.w3.org/2000/svg"
   xmlns:svg="http://www.w3.org/2000/svg">
  <defs
     id="defs77" />
  <sodipodi:namedview
     id="namedview75"
     pagecolor="#ffffff"
     bordercolor="#666666"
     borderopacity="1.0"
     inkscape:pageshadow="2"
     inkscape:pageopacity="0.0"
     inkscape:pagecheckerboard="0" />
  <g
     id="Layer1000"
     transform="translate(-86.3909,-220.3169)">
    <path
       d="m 98.4984,376.3781 c 1.6615,0.8469 4.2138,1.7 6.8445,1.7 2.8348,0 4.3354,-1.1741 4.3354,-2.9549 0,-1.7054 -1.2958,-2.6716 -4.5795,-3.848 -4.5347,-1.5869 -7.4888,-4.0897 -7.4888,-8.0625 0,-4.6596 3.8873,-8.2235 10.3244,-8.2235 3.0781,0 5.3486,0.6483 6.9685,1.3821 l -1.379,4.9805 c -1.0932,-0.5258 -3.0372,-1.3012 -5.7088,-1.3012 -2.6747,0 -3.9704,1.2212 -3.9704,2.6331 0,1.7415 1.5398,2.5114 5.0637,3.8488 4.818,1.7831 7.0877,4.2938 7.0877,8.1371 0,4.5818 -3.5238,8.5106 -11.0189,8.5106 -3.1174,0 -6.1939,-0.8445 -7.7329,-1.6999 z"
       style="fill:#007dc3;fill-rule:evenodd"
       id="path2" />
    <path
       d="m 130.8207,373.3762 c -3.2421,-0.0385 -5.7535,0.7338 -5.7535,3.1204 0,1.5807 1.0548,2.3506 2.4306,2.3506 1.5367,0 2.7963,-1.0132 3.2005,-2.2705 0.0808,-0.3187 0.1224,-0.6867 0.1224,-1.0517 z m 5.9938,4.5378 c 0,1.9048 0.08,3.7264 0.2825,4.8173 h -5.5487 l -0.365,-1.9848 h -0.1224 c -1.2958,1.5892 -3.319,2.4337 -5.6672,2.4337 -4.0121,0 -6.4011,-2.9156 -6.4011,-6.0777 0,-5.1382 4.6179,-7.6104 11.6257,-7.572 v -0.2849 c 0,-1.0493 -0.5706,-2.5475 -3.6048,-2.5475 -2.0295,0 -4.1729,0.6867 -5.4686,1.4982 l -1.1349,-3.9704 c 1.379,-0.7699 4.0921,-1.7447 7.6968,-1.7447 6.598,0 8.7077,3.8927 8.7077,8.5499 z"
       style="fill:#007dc3;fill-rule:evenodd"
       id="path4" />
    <path
       d="m 145.7646,362.9301 2.6724,9.1927 c 0.4873,1.6662 0.8523,3.2421 1.1348,4.8173 h 0.1217 c 0.3241,-1.6199 0.6482,-3.115 1.094,-4.8173 l 2.5499,-9.1927 h 6.4811 l -7.3703,19.802 h -6.157 l -7.2102,-19.802 z"
       style="fill:#007dc3;fill-rule:evenodd"
       id="path6" />
    <path
       d="m 174.0372,370.583 c 0,-1.4951 -0.6506,-4.0089 -3.483,-4.0089 -2.5939,0 -3.6463,2.3505 -3.8096,4.0089 z m -7.2478,4.2113 c 0.1993,2.5499 2.71,3.7704 5.5871,3.7704 2.1042,0 3.8064,-0.2873 5.4679,-0.8084 l 0.8115,4.1698 c -2.0295,0.806 -4.4962,1.2541 -7.1709,1.2541 -6.7252,0 -10.574,-3.9288 -10.574,-10.1274 0,-5.0174 3.1228,-10.5708 10.0065,-10.5708 6.3979,0 8.8317,4.9805 8.8317,9.881 0,1.0548 -0.1248,1.9911 -0.2048,2.4313 z"
       style="fill:#007dc3;fill-rule:evenodd"
       id="path8" />
    <path
       d="m 191.6142,369.2456 c 0,-2.469 -0.08,-4.5763 -0.1632,-6.3155 h 5.1853 l 0.2826,2.6724 h 0.1224 c 0.8523,-1.2542 2.5938,-3.1205 5.9968,-3.1205 2.5468,0 4.574,1.2957 5.4263,3.3614 h 0.0801 c 0.7283,-1.0548 1.6199,-1.8192 2.5507,-2.3867 1.0932,-0.6506 2.3089,-0.9747 3.7679,-0.9747 3.8041,0 6.6805,2.6747 6.6805,8.5883 v 11.6618 h -5.9937 v -10.7702 c 0,-2.874 -0.9308,-4.5379 -2.9133,-4.5379 -1.4198,0 -2.4306,0.9748 -2.8372,2.1512 -0.1609,0.4435 -0.244,1.091 -0.244,1.5752 v 11.5817 h -5.9946 v -11.0967 c 0,-2.5083 -0.8915,-4.2114 -2.8316,-4.2114 -1.5814,0 -2.5115,1.2157 -2.8772,2.2258 -0.2048,0.485 -0.2433,1.0548 -0.2433,1.5422 v 11.5401 h -5.9945 z"
       style="fill:#007dc3;fill-rule:evenodd"
       id="path10" />
    <path
       d="m 231.671,372.8127 c 0,3.403 1.4174,5.9529 4.0505,5.9529 2.3866,0 3.9288,-2.3867 3.9288,-5.9529 0,-2.9596 -1.1348,-5.9498 -3.9288,-5.9498 -2.9573,0 -4.0505,3.0286 -4.0505,5.9498 z m 14.3364,-0.2017 c 0,7.2455 -5.1445,10.5677 -10.4468,10.5677 -5.792,0 -10.2491,-3.8072 -10.2491,-10.2028 0,-6.401 4.2138,-10.4963 10.5709,-10.4963 6.0745,0 10.125,4.1784 10.125,10.1314 z"
       style="fill:#007dc3;fill-rule:evenodd"
       id="path12" />
    <path
       d="m 249.813,369.2456 c 0,-2.469 -0.08,-4.5763 -0.1577,-6.3155 h 5.3407 l 0.2881,2.7085 h 0.1193 c 0.8115,-1.2573 2.8348,-3.1566 6.1161,-3.1566 4.0529,0 7.0901,2.6747 7.0901,8.5052 v 11.7449 h -6.1601 v -10.9719 c 0,-2.553 -0.8884,-4.2977 -3.1173,-4.2977 -1.6999,0 -2.7131,1.1772 -3.1173,2.3121 -0.1641,0.4018 -0.2441,0.9747 -0.2441,1.5398 v 11.4177 h -6.1578 z"
       style="fill:#007dc3;fill-rule:evenodd"
       id="path14" />
    <path
       d="m 285.5376,370.583 c 0,-1.4951 -0.6452,-4.0089 -3.4831,-4.0089 -2.5938,0 -3.6463,2.3505 -3.8064,4.0089 z m -7.251,4.2113 c 0.2048,2.5499 2.7162,3.7704 5.5926,3.7704 2.1073,0 3.8041,-0.2873 5.4656,-0.8084 l 0.8138,4.1698 c -2.0295,0.806 -4.5017,1.2541 -7.1709,1.2541 -6.7252,0 -10.5732,-3.9288 -10.5732,-10.1274 0,-5.0174 3.1197,-10.5708 10.0057,-10.5708 6.3987,0 8.8293,4.9805 8.8293,9.881 0,1.0548 -0.1192,1.9911 -0.2017,2.4313 z"
       style="fill:#007dc3;fill-rule:evenodd"
       id="path16" />
    <path
       d="m 299.3105,362.9301 2.9572,9.724 c 0.3234,1.171 0.7276,2.63 0.9685,3.6824 h 0.1217 c 0.2856,-1.0524 0.6098,-2.5475 0.8915,-3.6824 l 2.4314,-9.724 h 6.6035 l -4.621,13.0407 c -2.8325,7.8577 -4.7372,11.0166 -6.9606,12.9991 -2.1513,1.8632 -4.4186,2.5114 -5.9585,2.7131 l -1.2957,-5.2214 c 0.7699,-0.1248 1.7415,-0.4843 2.6747,-1.0525 0.9331,-0.4866 1.9409,-1.459 2.5499,-2.4745 0.2048,-0.2802 0.3241,-0.5981 0.3241,-0.8892 0,-0.1994 -0.0416,-0.5235 -0.2857,-1.0078 l -7.2455,-18.1075 z"
       style="fill:#007dc3;fill-rule:evenodd"
       id="path18" />
    <path
       d="m 318.9798,383.1794 c -2.0711,0 -3.5631,-1.5751 -3.5631,-3.7295 0,-2.1818 1.492,-3.7601 3.644,-3.7601 2.148,0 3.6047,1.5344 3.6047,3.7601 0,2.1544 -1.4567,3.7295 -3.6463,3.7295 z"
       style="fill:#007dc3;fill-rule:evenodd"
       id="path20" />
    <path
       d="m 336.4085,355.4327 h 6.1993 v 22.1187 h 10.8558 v 5.1807 h -17.0551 z"
       style="fill:#007dc3;fill-rule:evenodd"
       id="path22" />
    <path
       d="m 357.711,382.7321 v -19.802 h 6.1578 v 14.9596 4.8424 z m 6.3603,-25.3115 c 0,1.7055 -1.2958,3.0844 -3.3198,3.0844 -1.9464,0 -3.2398,-1.3789 -3.1982,-3.0844 -0.0416,-1.7831 1.2518,-3.1118 3.2366,-3.1118 1.9856,0 3.2421,1.3287 3.2814,3.1118 z"
       style="fill:#007dc3;fill-rule:evenodd"
       id="path24" />
    <path
       d="m 374.1987,362.9301 2.6715,9.1927 c 0.4819,1.6662 0.8531,3.2421 1.1325,4.8173 h 0.1217 c 0.3218,-1.6199 0.6506,-3.115 1.0964,-4.8173 l 2.553,-9.1927 h 6.4811 l -7.3726,19.802 h -6.1633 l -7.2039,-19.802 z"
       style="fill:#007dc3;fill-rule:evenodd"
       id="path26" />
    <path
       d="m 402.4744,370.583 c 0,-1.4951 -0.6475,-4.0089 -3.4885,-4.0089 -2.597,0 -3.6463,2.3505 -3.8017,4.0089 z m -7.251,4.2113 c 0.2017,2.5499 2.7131,3.7704 5.584,3.7704 2.1097,0 3.8104,-0.2873 5.4711,-0.8084 l 0.8083,4.1698 c -2.0264,0.806 -4.4962,1.2541 -7.1654,1.2541 -6.7252,0 -10.5764,-3.9288 -10.5764,-10.1274 0,-5.0174 3.1237,-10.5708 10.0066,-10.5708 6.3979,0 8.8316,4.9805 8.8316,9.881 0,1.0548 -0.124,1.9911 -0.2103,2.4313 z"
       style="fill:#007dc3;fill-rule:evenodd"
       id="path28" />
    <path
       d="m 426.2021,374.3085 c 0,0.4042 0.0416,0.7754 0.1224,1.0996 0.4042,1.6528 1.8216,2.9093 3.6071,2.9093 2.6331,0 4.253,-2.0232 4.253,-5.5871 0,-3.0813 -1.379,-5.5064 -4.253,-5.5064 -1.6638,0 -3.2029,1.251 -3.6071,3.0373 -0.0808,0.3649 -0.1224,0.7252 -0.1224,1.1372 z m -6.1515,-20.3301 h 6.1515 v 11.3015 h 0.0832 c 1.1772,-1.7054 3.2421,-2.7987 5.9968,-2.7987 4.7349,0 8.2235,3.9336 8.1764,10.0081 0,7.127 -4.5324,10.6901 -9.0671,10.6901 -2.3066,0 -4.541,-0.8444 -5.9561,-3.1973 h -0.0832 l -0.2433,2.7492 h -5.2214 c 0.0769,-1.2903 0.1632,-3.6824 0.1632,-5.909 z"
       style="fill:#007dc3;fill-rule:evenodd"
       id="path30" />
    <path
       d="m 456.3755,370.583 c 0,-1.4951 -0.6506,-4.0089 -3.4744,-4.0089 -2.5915,0 -3.6494,2.3505 -3.8095,4.0089 z m -7.2423,4.2113 c 0.2017,2.5499 2.71,3.7704 5.584,3.7704 2.1073,0 3.8095,-0.2873 5.4679,-0.8084 l 0.8115,4.1698 c -2.0209,0.806 -4.4994,1.2541 -7.1733,1.2541 -6.7197,0 -10.5654,-3.9288 -10.5654,-10.1274 0,-5.0174 3.1174,-10.5708 10.0058,-10.5708 6.401,0 8.8269,4.9805 8.8269,9.881 0,1.0548 -0.1224,1.9911 -0.1993,2.4313 z"
       style="fill:#007dc3;fill-rule:evenodd"
       id="path32" />
    <path
       d="m 473.4683,357.5415 v 5.3878 h 4.4217 v 4.5324 h -4.4217 v 7.1733 c 0,2.3898 0.5706,3.4831 2.4314,3.4831 0.8499,0 1.2204,-0.0416 1.8271,-0.1633 l 0.0384,4.6596 c -0.8084,0.3186 -2.2697,0.565 -4.0144,0.565 -1.9825,0 -3.6408,-0.7251 -4.6124,-1.7391 -1.1357,-1.1734 -1.7031,-3.0813 -1.7031,-5.8721 v -8.1065 h -2.6299 v -4.5324 h 2.6299 v -3.7271 z"
       style="fill:#007dc3;fill-rule:evenodd"
       id="path34" />
    <path
       d="m 489.1468,357.5415 v 5.3878 h 4.4076 v 4.5324 h -4.4076 v 7.1733 c 0,2.3898 0.5674,3.4831 2.4251,3.4831 0.85,0 1.2157,-0.0416 1.8278,-0.1633 l 0.0361,4.6596 c -0.8091,0.3186 -2.265,0.565 -4.0096,0.565 -1.9794,0 -3.6432,-0.7251 -4.618,-1.7391 -1.1325,-1.1734 -1.6999,-3.0813 -1.6999,-5.8721 v -8.1065 h -2.6331 v -4.5324 h 2.6331 v -3.7271 z"
       style="fill:#007dc3;fill-rule:evenodd"
       id="path36" />
    <path
       d="m 509.9251,370.583 c 0,-1.4951 -0.6483,-4.0089 -3.4807,-4.0089 -2.5994,0 -3.6487,2.3505 -3.8151,4.0089 z m -7.2542,4.2113 c 0.2017,2.5499 2.7132,3.7704 5.5982,3.7704 2.0986,0 3.7985,-0.2873 5.46,-0.8084 l 0.8052,4.1698 c -2.0209,0.806 -4.4852,1.2541 -7.1623,1.2541 -6.722,0 -10.5708,-3.9288 -10.5708,-10.1274 0,-5.0174 3.1228,-10.5708 10.0057,-10.5708 6.3932,0 8.8293,4.9805 8.8293,9.881 0,1.0548 -0.1216,1.9911 -0.2072,2.4313 z"
       style="fill:#007dc3;fill-rule:evenodd"
       id="path38" />
    <path
       d="m 520.1247,369.4473 c 0,-2.9148 -0.0777,-4.8141 -0.1546,-6.5172 h 5.307 l 0.2024,3.644 h 0.1633 c 1.0108,-2.8796 3.4391,-4.0921 5.3384,-4.0921 0.5674,0 0.8523,0 1.2957,0.08 v 5.836 c -0.4434,-0.1271 -0.9692,-0.2017 -1.6615,-0.2017 -2.265,0 -3.8017,1.2157 -4.2058,3.1173 -0.0801,0.4097 -0.1185,0.8916 -0.1185,1.379 v 10.0395 h -6.1664 z"
       style="fill:#007dc3;fill-rule:evenodd"
       id="path40" />
    <path
       d="m 538.616,383.1794 c -2.0657,0 -3.5584,-1.5751 -3.5584,-3.7295 0,-2.1818 1.4927,-3.7601 3.6384,-3.7601 2.1481,0 3.6047,1.5344 3.6047,3.7601 0,2.1544 -1.4566,3.7295 -3.6439,3.7295 z"
       style="fill:#007dc3;fill-rule:evenodd"
       id="path42" />
    <path
       d="m 427.709,312.8951 c 0,1.1741 -0.1029,2.3843 -0.4262,3.4446 -1.3319,4.4075 -5.898,8.1316 -11.6037,8.1316 -4.7599,0 -8.5412,-2.7022 -8.5412,-8.4142 0,-8.7382 9.6212,-11.1555 20.5711,-11.0966 z m 17.1798,-15.2249 c 0,-14.4196 -6.1577,-27.1001 -26.9643,-27.1001 -10.6846,0 -19.1655,3.0012 -23.7944,5.6728 l 3.3889,11.5871 c 4.2279,-2.666 10.9695,-4.8753 17.3486,-4.8753 10.5544,-0.0283 12.2849,5.9717 12.2849,9.8205 v 0.9104 c -23.0135,-0.0329 -37.5547,7.9299 -37.5547,24.1656 0,9.9116 7.4064,19.204 20.2838,19.204 7.915,0 14.5436,-3.1621 18.5054,-8.2235 h 0.3932 c 0,0 2.6276,10.9947 17.1163,6.7888 -0.7613,-4.5763 -1.0077,-9.4548 -1.0077,-15.33 z"
       style="fill:#007dc3;fill-rule:evenodd"
       id="path44" />
    <path
       d="m 86.3909,250.94 c 0,0 15.0341,61.6097 17.4342,71.61 2.7994,11.6727 7.8466,15.9673 22.3966,13.0705 l 9.3881,-38.1991 c 2.3788,-9.4885 3.9759,-16.2522 5.5039,-25.904 h 0.2692 c 1.0768,9.7483 2.608,16.4461 4.5654,25.937 0,0 3.8205,17.3407 5.7779,26.4463 1.9636,9.1063 7.4229,14.8434 21.6737,11.7198 L 195.7707,250.94 h -18.0628 l -7.6356,36.6106 c -2.0547,10.6572 -3.9155,18.985 -5.3525,28.7333 h -0.2575 c -1.3067,-9.6541 -2.965,-17.6499 -5.0527,-28.0324 L 151.4554,250.94 h -18.8162 l -8.5052,36.3728 c -2.4094,11.0528 -4.6658,19.9762 -6.0973,29.3926 h -0.2574 c -1.47,-8.8686 -3.4242,-20.0845 -5.5425,-30.7825 0,0 -5.0527,-26.0146 -6.8248,-34.9829 z"
       style="fill:#007dc3;fill-rule:evenodd"
       id="path46" />
    <path
       d="m 229.9193,312.8951 c 0,1.1741 -0.1029,2.3843 -0.427,3.4446 -1.3318,4.4075 -5.8972,8.1316 -11.6037,8.1316 -4.7591,0 -8.5381,-2.7022 -8.5381,-8.4142 0,-8.7382 9.6181,-11.1555 20.5688,-11.0966 z m 17.1767,-15.2249 c 0,-14.4196 -6.1546,-27.1001 -26.962,-27.1001 -10.687,0 -19.167,3.0012 -23.7912,5.6728 l 3.3834,11.5871 c 4.231,-2.666 10.9671,-4.8753 17.3486,-4.8753 10.563,-0.0283 12.2904,5.9717 12.2904,9.8205 v 0.9104 c -23.0159,-0.0329 -37.5548,7.9299 -37.5548,24.1656 0,9.9116 7.4009,19.204 20.2697,19.204 7.9244,0 14.5468,-3.1621 18.5172,-8.2235 h 0.3901 c 0,0 2.6307,10.9947 17.1163,6.7888 -0.7613,-4.5763 -1.0077,-9.4548 -1.0077,-15.33 z"
       style="fill:#007dc3;fill-rule:evenodd"
       id="path48" />
    <path
       d="m 275.7618,317.6417 v -66.7009 h -17.1964 v 84.6805 h 17.1964 z"
       style="fill:#007dc3;fill-rule:evenodd"
       id="path50" />
    <path
       d="m 500.7457,250.94 v 62.4707 c 0,8.6103 1.623,14.6464 5.0888,18.3312 3.0295,3.2256 8.021,5.3133 13.999,5.3133 5.0857,0 10.0858,-0.9662 12.445,-1.8444 l -0.2213,-13.4362 c -1.7557,0.4316 -3.7735,0.7754 -6.5314,0.7754 -5.8587,0 -7.8215,-3.7515 -7.8215,-11.4844 v -23.8995 h 14.9729 V 270.9633 H 517.7043 V 250.94 Z"
       style="fill:#007dc3;fill-rule:evenodd"
       id="path52" />
    <path
       d="m 456.3559,272.0064 v 63.6133 h 17.7387 v -32.5711 c 0,-1.758 0.1051,-3.2923 0.3853,-4.6956 1.3123,-6.8249 6.5314,-11.1854 14.0202,-11.1854 2.057,0 3.5278,0.2214 5.1225,0.4513 v -16.654 c -1.3373,-0.2684 -2.2485,-0.3932 -3.91,-0.3932 -6.6192,0 -14.1504,4.2718 -17.3125,13.4339 h -0.4818 v -11.9992 z"
       style="fill:#007dc3;fill-rule:evenodd"
       id="path54" />
    <path
       d="m 287.8057,272.0064 v 63.6133 H 305.09 v -37.3059 c 0,-1.7494 0.2025,-3.5993 0.8115,-5.2074 1.4339,-3.7569 4.9287,-8.1512 10.5072,-8.1512 6.974,0 10.2389,5.9003 10.2389,14.411 v 36.2535 h 17.2677 v -37.7572 c 0,-1.6693 0.23,-3.6793 0.7205,-5.1548 1.4198,-4.2749 5.1854,-7.7525 10.3739,-7.7525 7.0713,0 10.4656,5.7952 10.4656,15.8096 v 34.8549 h 17.2796 v -37.466 c 0,-19.7573 -10.0341,-27.582 -21.3575,-27.582 -5.0166,0 -8.9761,1.2573 -12.5565,3.4525 -3.009,1.8466 -5.7033,4.4719 -8.0562,7.9243 h -0.2551 c -2.7328,-6.8554 -9.1589,-11.3768 -17.5315,-11.3768 -10.7615,0 -15.596,5.4514 -18.5281,10.078 h -0.2543 v -8.6433 z"
       style="fill:#007dc3;fill-rule:evenodd"
       id="path56" />
    <path
       d="m 625.6391,269.4423 c 3.4195,0 6.2324,-1.7752 6.6146,-4.0732 l 3.3779,-38.1771 c 0,-3.7735 -4.4194,-6.8751 -9.9815,-6.8751 -5.5511,0 -9.9649,3.1016 -9.9649,6.8751 l 3.37,38.1771 c 0.3736,2.298 3.1896,4.0732 6.5973,4.0732 z"
       style="fill:#fdbb30;fill-rule:evenodd"
       id="path58" />
    <path
       d="m 605.0045,281.3686 c 1.7164,-2.9565 1.5838,-6.2849 -0.2213,-7.7604 l -31.3806,-22.0058 c -3.2586,-1.8883 -8.1535,0.3854 -10.931,5.1972 -2.7854,4.8094 -2.2925,10.1831 0.9661,12.0659 l 34.7419,16.18 c 2.1763,0.8083 5.1336,-0.7417 6.839,-3.6989 z"
       style="fill:#fdbb30;fill-rule:evenodd"
       id="path60" />
    <path
       d="m 646.2887,281.3482 c 1.7109,2.9572 4.6595,4.5049 6.8327,3.6965 l 34.7474,-16.1776 c 3.2728,-1.886 3.7429,-7.2597 0.9772,-12.066 -2.7909,-4.8149 -7.6913,-7.0877 -10.9445,-5.2002 l -31.3805,22.0089 c -1.7941,1.4754 -1.9267,4.8031 -0.2189,7.7603 z"
       style="fill:#fdbb30;fill-rule:evenodd"
       id="path62" />
    <path
       d="m 625.6391,317.1268 c 3.4195,0 6.2324,1.7667 6.6146,4.0647 l 3.3779,38.1724 c 0,3.782 -4.4194,6.8743 -9.9815,6.8743 -5.5511,0 -9.9649,-3.0923 -9.9649,-6.8743 l 3.37,-38.1724 c 0.3736,-2.298 3.1896,-4.0647 6.5973,-4.0647 z"
       style="fill:#fdbb30;fill-rule:evenodd"
       id="path64" />
    <path
       d="m 646.2887,305.2045 c 1.7109,-2.9627 4.6595,-4.4994 6.8327,-3.6824 l 34.7474,16.1612 c 3.2728,1.8906 3.7429,7.2675 0.9772,12.0793 -2.7909,4.8015 -7.6913,7.0799 -10.9445,5.1971 L 646.521,312.9704 c -1.7941,-1.492 -1.9267,-4.8173 -0.2189,-7.7714 z"
       style="fill:#fdbb30;fill-rule:evenodd"
       id="path66" />
    <path
       d="m 605.0045,305.1983 c 1.7164,2.954 1.5838,6.2794 -0.2213,7.7721 l -31.3806,21.9916 c -3.2586,1.8797 -8.1535,-0.3987 -10.931,-5.1971 -2.7854,-4.8149 -2.2925,-10.1886 0.9661,-12.0824 l 34.7419,-16.158 c 2.1763,-0.8194 5.1336,0.7173 6.839,3.6793 z"
       style="fill:#fdbb30;fill-rule:evenodd"
       id="path68" />
    <path
       d="m 699.0777,332.4043 h 0.7166 c 0.7864,0 1.4708,-0.241 1.4708,-0.9222 0,-0.5486 -0.3407,-0.9245 -1.368,-0.9245 -0.4073,0 -0.6451,0.0329 -0.8194,0.069 z m 0,3.2115 h -1.0579 v -5.7065 c 0.5784,-0.102 1.1937,-0.1719 1.9825,-0.1719 0.9582,0 1.4338,0.1719 1.8082,0.4435 0.3461,0.2378 0.5808,0.6835 0.5808,1.1984 0,0.7173 -0.5094,1.16 -1.1262,1.3648 v 0.0699 c 0.5148,0.2048 0.7864,0.6506 0.9574,1.3703 0.1688,0.8829 0.2747,1.2267 0.4129,1.4315 h -1.0964 c -0.1719,-0.2048 -0.3046,-0.7173 -0.4458,-1.5037 -0.1327,-0.6146 -0.5125,-0.8885 -1.3319,-0.8885 h -0.6836 z m 0.9575,-7.4865 c -2.4612,0 -4.3408,2.0155 -4.3408,4.4767 0,2.5365 1.8796,4.5127 4.4107,4.5127 2.4636,0.0393 4.2718,-1.9762 4.2718,-4.4766 0,-2.4973 -1.8082,-4.5128 -4.3056,-4.5128 z m 0.0699,-0.9551 c 3.0757,0 5.504,2.3921 5.504,5.4318 0,3.115 -2.4283,5.5071 -5.5378,5.5071 -3.1118,0 -5.573,-2.3921 -5.573,-5.5071 0,-3.0397 2.4612,-5.4318 5.573,-5.4318 z"
       style="fill:#fdbb30;fill-rule:evenodd"
       id="path70" />
  </g>
</svg>
